<svg width="476" height="474" viewBox="0 0 476 474" fill="none" xmlns="http://www.w3.org/2000/svg">
<path d="M79.5554 413.501C81.5013 415.057 83.4472 416.614 85.3931 417.782C85.3931 417.782 85.7823 417.782 85.7823 418.171C88.1174 418.171 90.4525 417.782 93.1767 417.782C93.5659 416.614 93.9551 415.836 94.3443 414.668C95.5119 412.722 96.6794 410.776 97.8469 408.441C100.182 404.16 102.128 399.49 102.906 394.042C104.852 383.145 103.295 371.858 98.6253 361.351C98.6253 360.961 98.2361 360.961 98.2361 361.351C96.6794 365.632 97.0686 370.302 95.901 374.583C94.7335 380.031 93.1768 385.091 92.0092 390.15C90.8417 395.598 90.8417 401.047 90.8417 406.495V413.501C90.4525 412.333 90.4525 411.555 90.0633 410.387C89.285 407.663 88.5066 404.939 87.7282 402.214C86.1715 398.712 85.0039 395.209 83.4472 391.707C82.6688 389.761 81.5014 388.204 81.1122 386.258C80.723 385.091 80.723 383.923 81.1122 382.755C81.5014 381.588 81.8905 380.81 82.2797 379.642C83.0581 377.696 84.6148 375.75 85.7823 373.804C88.1174 369.523 90.4525 364.853 91.62 359.794C92.7876 355.513 92.7876 350.843 92.3984 346.173C92.0092 341.502 90.4525 336.443 87.339 332.94C87.339 332.551 86.9499 332.94 86.9499 332.94C84.6148 341.502 81.5014 349.286 80.3338 358.237C79.9446 362.907 79.1663 367.967 78.7771 372.637C78.7771 374.583 78.3879 376.918 78.3879 378.864V380.42C76.442 375.75 74.8853 370.691 73.3286 365.632C72.1611 362.518 71.3826 359.405 70.2151 356.291C69.4367 354.345 68.6584 352.399 67.88 350.843C67.4908 349.675 67.4909 348.118 67.1017 346.951C67.8801 341.892 71.3827 336.832 72.9394 332.162C74.107 329.049 74.4961 325.935 72.9394 322.822C70.9935 318.152 67.4908 314.26 64.3774 310.368C63.9882 309.979 63.599 310.368 63.9882 310.368C65.5449 318.541 65.9341 326.714 65.9341 334.497C65.9341 338.778 66.3233 342.67 66.7125 346.951V347.729L66.3233 347.34C64.7666 343.837 63.2099 340.335 61.6532 337.221C60.4857 335.275 59.318 332.94 58.1505 330.994V330.605C58.1505 324.378 56.983 317.762 54.2587 311.535C51.5344 305.309 47.2535 299.471 41.0266 295.579C40.7671 295.579 40.6374 295.709 40.6374 295.968C41.0266 297.136 41.4158 297.914 41.805 299.082C42.1942 300.249 42.9725 301.028 43.3617 302.195C44.5292 304.53 45.3076 307.255 45.6968 309.59C46.086 311.535 46.4751 313.481 47.2535 315.038C47.6427 316.984 48.421 318.541 49.1994 320.097L48.0319 318.93C46.8644 317.373 45.6967 315.816 44.5292 314.26C42.9725 311.925 40.6375 310.368 38.3024 309.2C33.6322 306.865 28.5729 306.476 24.2919 308.033C23.9027 308.033 23.9027 308.422 24.2919 308.422C28.962 311.535 33.243 315.427 39.0807 318.152C42.1941 319.319 45.6967 320.097 48.8102 322.043C51.9236 323.989 54.2587 326.714 56.2046 329.827H56.5938C59.3181 333.719 61.264 338 63.2099 342.281C62.4315 340.724 61.6531 339.556 60.4856 338.389C59.7072 337.221 58.5397 336.054 57.3722 334.886C56.5938 333.719 55.4262 332.94 54.2587 332.162C53.0911 331.384 51.9236 330.605 50.7561 329.827C49.5886 329.049 48.421 328.659 46.8643 328.27C45.6967 327.881 44.14 327.492 42.9725 326.714C42.5833 326.714 42.1941 327.103 42.5833 327.103C47.2534 330.216 49.1994 336.054 53.4804 339.556C54.2588 340.335 55.4263 341.113 56.5938 341.502C57.7613 342.281 59.318 343.448 60.0964 344.616C60.8748 345.394 61.6531 346.173 62.4315 347.34C63.2099 348.118 64.3774 348.897 64.7666 350.064C67.1017 352.789 67.8801 356.291 69.0476 359.405C70.6043 363.296 71.7719 367.577 73.3286 371.469C68.2693 358.626 58.1506 346.951 46.086 342.67C45.6968 342.67 45.6968 343.059 45.6968 343.059C48.0319 346.951 49.1994 351.621 51.5345 355.513C53.8696 359.405 56.2047 362.907 59.3181 366.021C61.6532 368.745 64.3774 371.08 67.1017 373.415C69.826 375.361 72.5502 377.307 75.6636 378.085C76.442 379.642 76.8311 381.588 77.6095 383.145C79.5554 387.815 81.5013 392.874 83.4472 397.544C85.0039 401.436 86.5607 405.717 87.7282 409.998C86.9499 408.441 86.1715 406.885 85.3931 405.717C83.058 401.047 81.1121 396.766 77.9987 392.485C75.2744 388.593 72.5503 385.091 69.4368 381.977C66.3234 378.474 63.2099 375.75 59.3181 373.415C59.0587 373.415 58.9289 373.545 58.9289 373.804C59.7073 383.923 63.2099 394.042 68.6584 402.604C72.9394 406.885 76.0528 410.387 79.5554 413.501Z" fill="#317170"/>
<path d="M110.16 360.821C97.4002 356.266 89.2756 336.485 100.133 314.527C100.689 313.398 102.144 313.042 103.153 313.795C123.693 329.107 121.798 352.158 110.16 360.825V360.821Z" fill="#3D7F5E"/>
<path d="M101.402 322.91C105.168 332.322 111.386 362.995 111.574 372.407C113.457 374.1 113.834 372.595 113.834 372.595C111.762 362.431 106.679 331.189 101.402 322.91Z" fill="#55B889"/>
<path d="M111.57 372.407C112.372 378.684 107.909 387.82 110.14 402.692C112.268 403.965 112.904 402.055 112.904 402.055C111.098 395.574 113.057 374.901 113.83 372.595L111.57 372.407Z" fill="#55B889"/>
<path d="M129.703 369.761C132.68 368.7 140.336 370.293 139.911 366.15C131.193 364.66 129.703 369.761 129.703 369.761Z" fill="#55B889"/>
<path d="M113.117 372.839C121.198 361.474 133.954 363.067 139.907 366.146C131.614 366.254 128.105 375.814 120.665 375.706C113.221 375.598 113.117 372.835 113.117 372.835V372.839Z" fill="#3D7F5E"/>
<path d="M109.592 378.715C111.878 372.652 97.6901 359.717 83.9873 369.763C85.7819 377.753 103.951 383.633 109.592 378.715Z" fill="#3D7F5E"/>
<path d="M111.164 383.751C110.447 379.952 111.424 375.161 91.9541 371.096C101.153 374.596 109.933 376.832 110.317 384.245L111.164 383.751Z" fill="#55B889"/>
<path d="M112.372 373.372C114.179 370.501 122.152 362.747 134.062 365.721C121.623 364.128 114.82 371.246 112.801 374.541L112.376 373.372H112.372Z" fill="#55B889"/>
<path d="M384.184 360.821C396.943 356.266 405.068 336.485 394.211 314.527C393.654 313.398 392.2 313.042 391.19 313.795C370.65 329.107 372.545 352.158 384.184 360.825V360.821Z" fill="#3D7F5E"/>
<path d="M392.94 322.91C389.175 332.322 382.957 362.995 382.769 372.407C380.886 374.1 380.509 372.595 380.509 372.595C382.58 362.431 387.664 331.189 392.94 322.91Z" fill="#55B889"/>
<path d="M382.774 372.407C381.972 378.684 386.435 387.82 384.204 402.692C382.076 403.965 381.439 402.055 381.439 402.055C383.246 395.574 381.287 374.901 380.514 372.595L382.774 372.407Z" fill="#55B889"/>
<path d="M364.641 369.761C361.664 368.7 354.008 370.293 354.433 366.15C363.151 364.66 364.641 369.761 364.641 369.761Z" fill="#55B889"/>
<path d="M381.228 372.839C373.147 361.474 360.391 363.067 354.438 366.146C362.731 366.254 366.24 375.814 373.68 375.706C381.123 375.598 381.228 372.835 381.228 372.835V372.839Z" fill="#3D7F5E"/>
<path d="M384.753 378.715C382.467 372.652 396.655 359.717 410.358 369.763C408.563 377.753 390.394 383.633 384.753 378.715Z" fill="#3D7F5E"/>
<path d="M383.18 383.751C383.897 379.952 382.92 375.161 402.39 371.096C393.192 374.596 384.411 376.832 384.027 384.245L383.18 383.751Z" fill="#55B889"/>
<path d="M381.972 373.372C380.165 370.501 372.192 362.747 360.282 365.721C372.721 364.128 379.524 371.246 381.543 374.541L381.968 373.372H381.972Z" fill="#55B889"/>
<path d="M396.577 244.596C384.123 256.661 375.172 268.725 367.388 280.012C359.605 291.298 353.378 302.195 348.318 313.092C342.87 324.378 338.2 335.664 334.308 348.507C330.027 361.35 326.524 375.75 324.578 393.263C324.578 394.431 325.746 394.82 326.135 393.263C328.47 376.139 331.973 361.74 335.865 348.897C340.146 336.054 344.816 324.767 349.875 313.481C355.324 302.195 361.55 291.687 368.945 280.401C376.728 269.115 385.68 257.439 398.134 245.375C398.523 244.985 397.355 243.818 396.577 244.596Z" fill="#2BB673"/>
<path d="M333.532 352.788C335.088 351.232 336.645 350.064 338.202 348.896C339.759 347.729 341.315 346.561 343.261 345.783C346.764 343.837 349.877 342.28 353.38 341.113C356.493 340.335 358.05 342.28 358.05 345.005C358.439 347.729 357.272 350.453 354.548 351.232C347.542 353.177 340.148 353.956 333.532 352.788Z" fill="#2BB673"/>
<path d="M337.423 336.443C337.423 336.443 342.093 333.33 347.931 330.216C353.769 327.103 361.163 323.989 366.223 323.211C368.947 322.822 370.114 324.768 370.503 327.103C370.503 329.438 369.336 331.773 366.612 332.551C361.552 333.719 354.547 334.886 348.32 335.276C342.483 336.054 337.423 336.443 337.423 336.443Z" fill="#2BB673"/>
<path d="M373.617 313.481C369.336 314.649 365.055 315.427 360.774 315.816C356.493 316.205 351.434 316.594 346.764 316.594C351.434 313.481 356.104 311.146 360.385 308.811C364.666 306.865 369.336 305.308 373.228 304.53C378.287 303.752 378.677 312.314 373.617 313.481Z" fill="#2BB673"/>
<path d="M385.29 297.136C380.62 298.303 375.95 298.692 370.891 299.082C365.831 299.471 360.772 299.471 355.323 299.471C358.048 297.914 360.772 296.357 363.107 295.19C365.831 294.022 368.166 292.855 370.891 291.687C375.95 289.741 380.62 288.574 385.29 287.795C391.128 287.017 390.739 296.357 385.29 297.136Z" fill="#2BB673"/>
<path d="M390.741 280.401C383.346 281.958 375.563 281.958 366.612 281.958C375.952 276.509 383.735 273.785 391.13 272.617C393.465 272.228 394.633 274.174 394.633 276.12C394.243 277.677 393.076 280.012 390.741 280.401Z" fill="#2BB673"/>
<path d="M412.145 235.256C406.308 240.315 400.081 244.986 393.465 248.877C397.357 242.261 402.805 236.424 409.032 231.364C412.535 228.64 415.259 232.532 412.145 235.256Z" fill="#2BB673"/>
<path d="M375.562 269.115C379.065 267.558 382.178 265.612 385.681 264.444C389.183 262.888 392.297 261.72 395.799 260.942C400.08 260.163 400.08 266.39 395.799 267.558C391.907 268.725 386.848 269.115 382.956 269.115C379.064 269.504 375.562 269.115 375.562 269.115Z" fill="#2BB673"/>
<path d="M386.848 255.104C391.907 253.158 396.967 250.823 401.637 250.045C404.75 249.656 404.75 254.326 401.248 255.104C398.523 255.882 394.631 255.882 391.907 255.882C388.794 255.104 386.848 255.104 386.848 255.104Z" fill="#2BB673"/>
<path d="M331.585 352.01C331.196 350.064 330.807 347.729 330.028 345.783C329.639 343.837 328.861 341.891 328.472 339.946C327.304 336.054 325.358 332.551 323.801 329.048C322.245 326.324 319.52 326.713 317.575 329.048C315.629 330.994 314.461 334.886 316.018 337.61C319.52 344.616 324.969 349.675 331.585 352.01Z" fill="#2BB673"/>
<path d="M338.2 336.832C338.2 336.832 337.033 331.384 335.087 324.767C333.141 318.151 331.195 309.979 329.249 304.919C328.082 302.195 325.357 302.584 323.411 304.141C321.465 305.698 319.909 309.2 321.076 311.925C323.022 316.984 327.303 323.6 331.195 328.27C334.698 333.329 338.2 336.832 338.2 336.832Z" fill="#2BB673"/>
<path d="M333.921 291.687C334.699 296.357 336.645 300.638 338.98 304.919C340.926 309.2 343.65 313.092 346.374 316.984C345.596 311.535 345.207 306.087 344.818 301.028C344.429 295.968 343.65 291.298 342.483 286.628C340.926 280.401 332.753 285.85 333.921 291.687Z" fill="#2BB673"/>
<path d="M344.817 270.282C345.206 275.731 346.763 280.79 348.32 285.46C349.877 290.13 352.601 295.19 354.936 299.471V281.568C354.936 275.731 354.936 270.671 354.158 265.223C354.158 259.385 344.428 264.055 344.817 270.282Z" fill="#2BB673"/>
<path d="M361.163 257.439C360.773 265.612 363.498 273.396 366.222 281.958C367.779 271.45 369.335 262.888 369.335 254.715C369.335 251.991 367.389 251.212 365.444 251.991C363.108 252.38 361.163 254.715 361.163 257.439Z" fill="#2BB673"/>
<path d="M375.563 269.114C376.341 265.223 377.119 261.72 378.287 257.828C379.454 254.326 380.233 250.434 380.622 246.931C381.4 242.261 374.395 243.039 373.617 248.099C372.838 252.38 373.228 257.439 374.006 261.72C374.784 266.001 375.563 269.114 375.563 269.114Z" fill="#2BB673"/>
<path d="M387.627 255.883C389.184 250.823 391.13 245.375 392.297 240.705C393.076 237.591 388.016 237.591 387.238 241.094C386.459 244.207 386.46 247.71 386.849 250.823C387.238 253.548 387.627 255.883 387.627 255.883Z" fill="#2BB673"/>
<path d="M418.918 344.615C411.134 353.177 404.907 363.296 401.015 374.193C398.291 381.977 396.345 390.149 395.956 398.322C395.567 403.382 394.399 410.776 396.345 415.835H397.513C399.848 416.224 402.572 416.225 404.907 416.225C404.907 381.587 424.366 346.95 449.663 323.989C438.377 330.216 427.48 334.886 418.918 344.615Z" fill="#84AA9B"/>
<path d="M450.051 324.767C424.755 347.729 405.296 382.366 405.296 417.003C408.409 417.003 411.912 417.392 415.025 417.392C416.971 417.392 418.917 417.781 420.863 418.17C424.755 415.057 428.257 411.165 430.592 406.495C437.208 393.652 438.376 378.863 439.933 364.464C441.489 350.064 443.435 335.275 451.997 323.6C451.219 323.989 450.441 324.378 450.051 324.767Z" fill="#CBE0D9"/>
<path d="M99.4034 261.72C99.4034 261.331 99.7926 260.942 100.571 260.942C105.241 260.553 109.911 262.109 114.192 264.055C117.695 265.612 120.808 267.558 124.311 269.893C127.814 271.839 130.927 273.396 132.094 277.287C132.873 279.233 133.262 281.568 134.04 283.514C134.819 285.46 135.597 287.406 136.375 289.741C137.154 292.076 137.932 294.022 139.1 296.357C139.489 293.244 140.267 289.741 141.046 286.628C141.435 285.46 141.824 284.293 142.213 283.125L143.77 284.682C146.494 287.406 149.608 290.13 151.943 293.244C152.332 293.633 152.332 294.022 152.721 294.022L153.499 294.801C153.889 295.579 154.667 295.968 155.056 296.746C157.002 299.082 158.559 301.417 160.116 304.141C160.894 305.308 162.061 306.865 162.84 308.422C162.84 308.811 163.229 309.2 163.229 309.589C164.786 312.703 166.342 315.427 167.899 318.541C169.067 321.654 170.234 324.767 171.402 327.881C172.569 331.773 173.737 336.054 174.515 339.945C175.294 344.226 175.683 348.118 175.683 352.399C175.683 355.123 175.294 358.237 174.904 360.961C174.904 362.518 174.515 363.685 174.515 365.242C174.126 366.799 173.737 367.966 173.737 369.523C172.958 372.247 172.18 374.972 171.402 377.307C170.623 380.031 169.456 382.366 168.288 384.701C167.899 385.09 167.899 385.48 167.51 385.869C167.121 386.647 166.732 387.425 166.342 388.204C164.397 392.485 161.283 396.377 157.78 399.49C155.835 401.436 153.11 402.993 149.997 402.214C149.608 402.214 149.219 402.214 149.219 401.825H148.829C145.716 400.268 144.159 397.155 143.381 394.431C142.602 392.485 142.213 390.928 141.435 388.982C140.657 387.036 140.267 385.48 139.878 383.534C139.1 381.199 138.711 378.474 137.543 376.139C137.543 375.75 137.154 375.361 137.154 374.972C136.765 373.415 136.375 372.247 135.986 370.691C135.986 370.302 135.597 369.912 135.597 369.523C135.597 369.134 135.597 368.745 135.208 368.356C134.819 366.799 134.04 365.242 133.651 363.685C133.651 363.296 133.651 362.907 133.262 362.518C133.262 362.129 132.873 361.74 132.873 361.35C132.484 359.015 130.927 357.459 130.927 355.123C130.538 353.178 131.705 353.567 133.262 353.956C135.208 354.345 137.543 355.123 139.489 356.291C141.046 357.069 142.602 358.237 143.381 359.794C143.381 359.015 142.992 358.626 142.602 357.848C142.213 357.069 141.824 356.68 141.435 355.902C140.657 354.734 139.878 353.567 139.1 352.788C138.321 351.621 137.154 350.453 135.986 349.286C134.819 348.118 133.651 347.34 132.484 346.172C130.149 344.226 128.203 342.67 126.257 340.724C124.7 338.778 124.7 336.054 123.922 334.108C123.143 332.551 122.754 330.605 122.365 329.048C121.587 327.492 121.197 325.935 120.419 323.989C117.695 316.205 114.192 308.422 111.079 299.86C111.079 299.471 110.69 299.082 110.69 298.303C109.911 296.746 109.522 295.19 108.744 293.633C108.744 293.244 108.355 293.244 108.355 292.855C104.852 283.514 100.96 273.785 98.2359 263.277C98.2359 262.888 98.2359 262.499 97.8467 262.499C99.0142 262.109 99.4034 262.109 99.4034 261.72Z" fill="#81CAA7"/>
<path d="M99.4033 262.109C100.96 264.444 102.906 266.39 105.241 268.336C107.187 270.282 109.522 272.228 111.468 274.174C113.803 276.898 115.749 279.233 118.084 281.958C120.03 284.682 122.365 287.017 124.311 289.741C131.316 298.692 136.765 308.422 140.657 318.93L141.046 319.319C142.602 314.26 143.381 308.422 146.105 303.752C148.051 300.249 149.997 296.357 152.721 293.244C153.11 293.633 153.11 294.022 153.499 294.022C152.721 295.19 151.943 296.357 151.164 297.525C149.608 299.86 148.051 302.195 146.883 304.919C144.548 309.979 144.159 315.816 141.824 320.876C142.213 322.043 142.602 323.6 142.992 324.767C142.992 322.822 143.77 321.265 144.548 319.319C146.494 313.87 148.051 308.811 150.386 303.363C151.164 301.806 151.554 300.249 152.332 298.692C152.721 297.525 153.5 295.968 154.278 294.411C154.667 295.19 155.445 295.579 155.835 296.357L155.445 296.746C153.499 299.86 151.943 303.752 150.386 307.254C148.829 311.146 148.051 314.649 146.494 318.541C145.716 320.486 144.938 322.432 144.548 324.378C144.159 325.546 144.159 326.324 143.77 327.103C144.548 329.438 144.938 331.773 145.716 334.108C148.051 329.048 151.554 323.6 154.667 318.541C157.002 314.649 160.116 310.757 163.229 307.254C163.229 307.643 163.618 308.033 163.618 308.422C160.505 311.924 157.78 315.427 155.445 319.319C153.889 322.043 151.943 324.767 150.386 327.492C148.829 330.216 147.273 332.94 146.105 335.664C147.273 340.724 148.44 345.783 148.829 351.232C150.775 365.631 151.943 380.031 151.554 394.431C154.278 392.096 157.781 389.761 160.894 387.815C163.229 386.258 165.953 384.312 169.067 383.534C168.678 383.923 168.678 384.312 168.288 384.701C165.953 385.48 163.618 387.036 161.283 388.593C157.78 390.928 154.278 393.263 151.164 395.987L150.775 401.047C150.386 401.047 149.997 401.047 149.997 400.658L150.386 392.485V383.923H149.997C146.883 380.031 142.992 376.918 138.321 374.972C138.321 374.582 137.932 374.193 137.932 373.804C140.267 374.972 142.602 376.139 144.548 377.696C146.494 379.253 148.44 380.809 149.997 382.755V376.918C145.716 373.026 141.435 370.301 136.376 368.356C136.376 367.966 136.376 367.577 135.986 367.188C141.046 369.134 145.716 371.858 149.997 375.361L149.608 372.637C146.494 370.301 143.77 367.577 140.657 365.631C138.711 364.464 136.765 363.296 134.819 362.518C134.819 362.129 134.819 361.74 134.43 361.35C136.376 362.129 138.711 363.296 140.657 364.464C144.159 366.41 146.494 369.134 149.608 371.469V367.966C149.608 366.799 149.608 365.631 149.219 364.464C148.829 362.129 148.829 359.794 148.44 357.069C148.44 355.123 148.051 353.178 147.662 351.232C147.273 349.286 147.273 347.34 146.883 345.394C146.494 343.448 146.105 341.502 145.716 339.556C145.716 338.778 145.327 337.61 145.327 336.443C144.938 335.664 144.938 334.497 144.548 333.719C144.159 332.551 144.159 331.773 143.77 330.605C143.381 328.659 142.602 326.713 142.213 324.767C142.213 324.378 141.824 323.6 141.824 322.822C141.435 321.654 141.046 320.486 140.657 319.708C139.878 317.373 138.711 315.038 137.932 312.703C137.543 311.535 137.154 310.757 136.765 309.589C136.376 308.811 135.986 307.643 135.208 306.865C134.041 304.919 133.262 302.973 132.095 301.417H131.705C129.76 300.638 127.424 300.249 125.479 299.471C123.143 298.692 120.808 298.303 118.084 297.914C116.138 297.525 114.192 297.525 112.246 297.914C112.246 297.525 111.857 297.136 111.857 296.357C114.582 295.968 117.306 295.968 120.03 296.357C122.365 296.746 125.089 297.525 127.424 298.303C128.592 298.692 129.76 298.692 130.927 299.082L128.203 294.801C127.424 293.244 126.257 292.076 125.479 290.909C125.479 291.298 125.089 291.298 124.7 291.298C122.365 289.741 118.084 290.52 115.749 290.909C113.803 291.298 111.857 291.687 110.301 292.076C110.301 291.687 109.911 291.687 109.911 291.298C112.246 290.909 114.192 290.52 116.527 290.13C118.862 289.741 122.365 289.352 124.7 290.52C122.754 287.795 120.808 285.46 118.862 282.736C114.971 278.066 111.468 273.396 107.187 269.115C104.852 266.78 101.739 264.444 99.7925 261.72C99.4034 262.888 99.0142 262.499 99.4033 262.109Z" fill="#2BB673"/>
<path d="M403.743 398.323C394.013 399.101 383.116 401.825 375.722 396.377C370.663 392.874 369.106 387.036 365.603 382.366C358.209 372.248 342.252 368.356 329.02 371.08C302.945 376.139 280.762 400.658 267.141 419.728H448.499C439.548 406.106 421.645 397.544 403.743 398.323Z" fill="#F1EADD"/>
<path d="M199.423 415.836C212.655 396.377 172.569 371.08 157.002 370.691C142.213 370.302 127.814 378.475 120.419 391.318C118.084 395.599 115.749 400.658 111.079 402.215C107.187 403.382 103.295 401.436 99.0139 400.269C90.4519 397.934 81.1117 400.658 73.3281 404.939C65.9337 409.22 60.096 415.058 53.8691 421.284H193.196C195.531 420.117 197.866 418.171 199.423 415.836Z" fill="#F1EADD"/>
<path d="M283.381 431.471C283.381 431.471 315.611 445.705 322.913 447.549C330.214 449.393 354.184 446.148 342.236 431.471C330.288 416.72 320.184 424.538 298.5 413.549C276.891 402.486 283.381 431.471 283.381 431.471Z" fill="white"/>
<path d="M202.03 349.973C202.03 349.973 140.962 336.55 128.866 370.993C116.771 405.436 176.364 421.661 187.427 424.095C198.49 426.603 223.861 428.668 229.614 430.512C235.367 432.356 256.755 434.2 259.779 435.601C262.803 437.002 293.558 444.083 293.558 444.083L316.569 412.59L292.673 392.234L282.495 354.693L202.03 349.973Z" fill="#E85B54"/>
<path d="M248.274 206.079C248.274 206.079 297.984 203.351 322.101 238.531C346.219 273.712 364.878 305.499 331.763 335.812C298.648 366.199 252.404 351.005 252.404 351.005L190.967 354.767C190.967 354.767 127.466 350.268 142.659 290.97C157.926 231.598 194.95 207.481 248.274 206.079Z" fill="#F9F9F9"/>
<mask id="mask0_44_4699" style="mask-type:alpha" maskUnits="userSpaceOnUse" x="140" y="206" width="210" height="149">
<path d="M248.274 206.079C248.274 206.079 297.984 203.351 322.101 238.531C346.219 273.712 364.878 305.499 331.763 335.812C298.648 366.199 252.404 351.005 252.404 351.005L190.967 354.767C190.967 354.767 127.466 350.268 142.659 290.97C157.926 231.598 194.95 207.481 248.274 206.079Z" fill="#F9F9F9"/>
</mask>
<g mask="url(#mask0_44_4699)">
<path d="M150.726 216.272C151.254 213.957 152.796 213.183 154.398 213.97C155.652 214.587 156.498 215.673 157.257 216.774C157.887 217.682 157.309 219.957 156.316 220.81C155.428 221.579 154.525 222.366 153.167 221.667C152.003 221.068 151.099 220.341 150.977 218.935C150.889 217.874 150.774 216.814 150.72 216.276L150.726 216.272Z" fill="#E2E2E2"/>
<path d="M209.252 246.935C210.115 247.309 210.983 247.653 211.496 248.597C212.037 249.583 212.612 250.534 212.816 251.669C212.953 252.426 212.851 253.038 212.188 253.505C211.288 254.142 210.381 254.709 209.203 254.264C209.052 254.209 208.884 254.213 208.725 254.172C208.129 254.016 207.336 254.558 206.939 253.798C206.477 252.916 205.749 252.114 205.986 250.959C206.079 250.502 205.904 249.998 205.903 249.518C205.904 247.718 206.765 246.87 208.572 246.862C208.787 246.861 209.002 246.908 209.247 246.934L209.252 246.935Z" fill="#E2E2E2"/>
<path d="M194.366 202.045C194.803 199.989 195.882 199.502 197.725 200.179C199.572 200.857 200.496 202.355 201.36 203.914C201.539 204.235 201.48 204.788 201.341 205.158C200.8 206.562 198.642 207.829 197.128 207.695C196.215 207.614 195.576 207.001 195.283 206.271C194.824 205.129 194.592 203.889 194.296 202.684C194.239 202.438 194.346 202.151 194.361 202.044L194.366 202.045Z" fill="#E2E2E2"/>
<path d="M232.581 255.925C232.377 257.477 231.199 258.014 229.468 258.198C227.923 258.361 226.81 257.526 226.406 256.149C226.078 255.032 225.599 253.991 225.949 252.737C226.38 251.171 226.462 250.988 228.032 250.804C230.824 250.473 233.205 253.158 232.58 255.93L232.581 255.925Z" fill="#E2E2E2"/>
<path d="M221.352 207.53C220.924 208.346 220.554 209.24 220.017 210.024C219.307 211.062 218.288 211.697 216.973 211.45C215.452 211.163 214.857 209.911 214.365 208.643C213.86 207.356 214.302 206.063 214.538 204.803C214.602 204.471 215.181 204.092 215.585 203.997C217.317 203.588 218.767 204.138 219.87 205.544C220.306 206.098 220.713 206.672 221.353 207.525L221.352 207.53Z" fill="#E2E2E2"/>
<path d="M333.184 229.202C333.705 228.201 333.666 226.883 335.058 226.561C335.266 226.512 335.525 226.384 335.672 226.464C336.692 227.02 337.913 227.432 338.635 228.265C339.365 229.109 339.651 230.364 340.023 231.474C340.222 232.066 339.937 232.549 339.379 232.979C338.509 233.653 337.642 234.311 336.539 234.428C335.996 234.486 335.184 234.419 334.896 234.071C333.726 232.688 333.113 231.041 333.188 229.208L333.184 229.202Z" fill="#E2E2E2"/>
<path d="M193.29 221.666C194.007 221.981 194.752 222.234 195.435 222.615C197.183 223.593 197.582 224.859 196.79 226.649C196.55 227.192 196.375 227.78 196.084 228.293C195.507 229.315 194.767 229.418 193.642 229.187C192.287 228.906 191.406 228.084 190.825 227.007C190.216 225.883 190.329 224.59 190.613 223.35C190.929 221.975 191.834 221.449 193.296 221.662L193.29 221.666Z" fill="#E2E2E2"/>
<path d="M345.189 275.81C345.22 275.649 345.26 275.495 345.296 275.335C345.72 273.506 347.732 272.947 349.25 274.063C351.016 275.357 351.087 277.275 351.376 279.11C351.522 280.01 350.324 281.033 349.223 281.114C348.636 281.158 348.041 281.127 347.458 281.067C346.399 280.958 345.428 280.114 345.237 278.992C345.06 277.956 345.056 276.885 344.972 275.831C345.046 275.824 345.12 275.817 345.189 275.81Z" fill="#E2E2E2"/>
<path d="M168.734 246.793C167.76 246.705 167.326 246.163 167.154 245.321C166.896 244.055 166.516 242.797 166.417 241.515C166.282 239.799 168.429 238.671 170.09 239.48C171.536 240.185 172.42 241.399 173.052 242.783C173.692 244.179 172.686 246.079 171.1 246.511C170.345 246.721 169.529 246.705 168.739 246.794L168.734 246.793Z" fill="#E2E2E2"/>
<path d="M348.937 255.292C349.139 254.621 349.327 253.942 349.548 253.28C349.891 252.255 350.285 251.992 351.333 252.026C352.65 252.069 353.759 252.407 354.29 253.804C354.591 254.602 355.12 255.325 355.349 256.141C355.789 257.687 355.601 258.283 354.147 258.844C352.926 259.309 351.567 259.998 350.217 258.988C348.984 258.067 348.564 256.886 348.937 255.292Z" fill="#E2E2E2"/>
<path d="M248.097 262.028C246.078 261.562 245.445 260.512 245.861 258.452C246.033 257.608 246.161 256.75 246.232 255.892C246.331 254.664 247.109 253.984 248.265 254.378C249.955 254.952 251.356 255.946 251.962 257.738C252.37 258.954 252.239 260.182 251.312 261.074C250.454 261.901 249.385 262.494 248.101 262.034L248.097 262.028Z" fill="#E2E2E2"/>
<path d="M230.037 231.455C230.563 229.312 232.257 228.666 233.868 229.575C235.209 230.334 236.117 231.369 236.589 232.827C237.09 234.374 236.44 235.778 234.825 236.554C233.463 237.206 232.055 236.769 231.236 235.406C230.44 234.09 229.92 232.691 230.037 231.455Z" fill="#E2E2E2"/>
<path d="M321.359 201.459C322.568 201.931 323.657 203.189 324.275 204.785C324.69 205.856 323.377 207.916 322.127 208.501C319.914 209.538 319.42 209.365 318.447 207.091C317.915 205.84 317.519 204.559 317.888 203.153C318.31 201.522 319.244 200.923 321.359 201.459Z" fill="#E2E2E2"/>
<path d="M337.661 207.442C337.488 206.579 337.851 205.964 338.624 205.607C339.545 205.183 340.4 205.133 341.402 205.623C343.048 206.429 343.636 207.878 344.169 209.426C344.202 209.526 344.206 209.642 344.201 209.745C344.166 210.422 341.89 212.71 341.022 212.799C339.915 212.91 339.027 212.427 338.455 211.44C338.317 211.205 338.197 210.958 338.022 210.757C337.137 209.742 337.041 208.638 337.666 207.443L337.661 207.442Z" fill="#E2E2E2"/>
<path d="M276.18 222.703C274.808 222.43 273.813 220.981 273.989 219.522C274.053 218.997 274.088 218.461 274.063 217.939C273.942 215.792 275.474 214.687 277.387 215.68C278.63 216.326 279.657 217.285 280.296 218.603C281.085 220.231 279.024 223.165 276.972 222.876C276.707 222.841 276.445 222.764 276.18 222.703Z" fill="#E2E2E2"/>
<path d="M276.376 241.216C275.569 243.843 273.769 244.85 271.669 244.097C271.206 243.93 270.638 243.544 270.488 243.129C269.915 241.548 269.575 239.917 270.023 238.207C270.234 237.408 270.713 236.894 271.454 236.895C272.607 236.897 273.842 236.795 274.576 238.084C274.998 238.822 275.667 239.415 276.106 240.147C276.347 240.548 276.341 241.1 276.37 241.22L276.376 241.216Z" fill="#E2E2E2"/>
<path d="M294.735 219.092C295.774 219.223 296.629 219.309 297.479 219.451C297.731 219.494 298.017 219.612 298.186 219.79C298.895 220.526 299.614 221.27 300.224 222.086C300.449 222.385 300.483 222.913 300.437 223.317C300.275 224.648 298.716 226.358 297.412 226.573C296.663 226.695 295.898 226.548 295.394 225.831C294.898 225.125 294.286 224.48 293.899 223.722C293.375 222.698 293.654 221.598 293.969 220.557C294.122 220.054 294.459 219.607 294.74 219.093L294.735 219.092Z" fill="#E2E2E2"/>
<path d="M173.833 218.064C174.827 218.735 175.915 219.398 176.913 220.179C177.516 220.655 177.543 221.985 177.097 222.756C176.935 223.033 176.701 223.27 176.51 223.531C176.176 223.994 175.936 224.73 175.501 224.876C174.71 225.137 173.804 225.073 172.946 225.081C172.722 225.079 172.465 224.868 172.285 224.693C172.14 224.55 172.145 224.227 171.99 224.135C170.265 223.089 170.709 221.4 170.703 219.854C170.702 218.502 170.893 218.293 172.259 218.112C172.73 218.051 173.214 218.081 173.833 218.064Z" fill="#E2E2E2"/>
<path d="M234.463 210.588C234.518 210.327 234.684 210.035 234.611 209.813C234.462 209.314 234.289 208.749 234.806 208.498C235.444 208.193 236.024 207.698 236.898 207.903C239.165 208.437 240.742 210.143 240.754 212.421C240.76 212.907 240.528 213.515 240.194 213.869C239.179 214.947 237.787 214.994 236.421 214.961C236.203 214.956 235.964 214.701 235.792 214.512C235.539 214.228 235.406 213.806 235.109 213.613C233.875 212.808 234.117 211.711 234.462 210.593L234.463 210.588Z" fill="#E2E2E2"/>
<path d="M316.626 223.114C317.065 223.381 317.399 223.492 317.606 223.719C318.216 224.4 318.796 225.106 319.345 225.832C320.295 227.085 320.237 228.253 319.177 229.485C318.345 230.447 317.497 230.843 316.274 230.254C315.729 229.993 315.148 230.22 314.56 229.638C313.478 228.564 313.791 227.366 313.68 226.176C313.662 225.969 313.761 225.753 313.793 225.535C313.888 224.874 313.576 224.026 314.449 223.693C315.18 223.416 315.963 223.279 316.622 223.108L316.626 223.114Z" fill="#E2E2E2"/>
<path d="M311.977 252.111C310.622 251.423 309.852 250.43 309.93 248.879C309.979 247.918 309.755 246.909 309.996 246.006C310.462 244.232 312.008 243.761 313.541 244.771C315.418 246.007 316.194 248.651 315.232 250.403C314.839 251.115 314.279 251.561 313.502 251.751C312.981 251.881 312.458 251.995 311.978 252.106L311.977 252.111Z" fill="#E2E2E2"/>
<path d="M292.585 240.745C294.424 241.171 295.968 243.023 296.099 244.895C296.16 245.747 295.772 246.383 295.186 246.881C294.656 247.332 294.026 247.676 293.417 248.024C293.206 248.145 292.847 248.248 292.672 248.152C291.607 247.556 290.442 247.046 290.087 245.689C289.798 244.584 289.505 243.5 289.863 242.342C290.365 240.7 290.906 240.355 292.59 240.746L292.585 240.745Z" fill="#E2E2E2"/>
<path d="M216.919 229.732C216.322 232.086 214.228 233.047 212.324 232.661C211.946 232.588 211.568 232.057 211.38 231.65C211.085 231.014 210.889 230.319 210.766 229.627C210.601 228.693 210.481 227.741 210.485 226.797C210.488 226.453 210.841 225.894 211.133 225.809C211.833 225.615 212.674 225.421 213.322 225.634C214.916 226.165 216.11 227.286 216.79 228.857C216.931 229.181 216.901 229.583 216.919 229.732Z" fill="#E2E2E2"/>
<path d="M305.884 266.594C306.385 266.513 306.833 266.516 307.226 266.372C308.431 265.94 309.332 266.489 310.178 267.22C311.4 268.279 311.965 270.746 311.351 272.152C311.036 272.87 310.595 273.265 309.729 273.125C309.061 273.018 308.362 273.072 307.675 273.086C306.753 273.108 306.336 272.48 306.01 271.786C305.427 270.526 305.37 268.156 305.884 266.594Z" fill="#E2E2E2"/>
<path d="M260.778 215.187C259.756 216.677 259.406 218.478 257.398 218.824C256.702 218.941 256.098 218.882 255.596 218.368C254.694 217.444 254.114 216.383 254.233 215.028C254.3 214.273 254.254 213.508 254.355 212.76C254.483 211.85 255.033 211.429 255.935 211.544C256.785 211.655 257.606 211.781 258.248 212.541C258.788 213.182 259.578 213.605 260.197 214.188C260.467 214.439 260.587 214.848 260.773 215.186L260.778 215.187Z" fill="#E2E2E2"/>
<path d="M253.108 233.324C255.375 233.774 256.936 236.276 256.173 237.669C255.619 238.68 254.739 239.513 253.951 240.385C253.825 240.523 253.438 240.501 253.199 240.439C251.48 240.015 250.382 239.105 250.452 237.543C250.485 236.855 250.27 236.151 250.293 235.461C250.354 233.453 251.16 232.872 253.107 233.329L253.108 233.324Z" fill="#E2E2E2"/>
<path d="M329.66 250.623C329.709 250.148 329.637 249.706 329.815 249.406C330.041 249.016 330.409 248.539 330.802 248.447C332.778 247.996 335.208 249.611 335.655 251.606C335.73 251.95 335.77 252.474 335.579 252.683C334.606 253.728 333.958 255.174 332.337 255.464C331.208 255.665 330.591 255.369 330.138 254.306C329.623 253.101 329.112 251.875 329.664 250.629L329.66 250.623Z" fill="#E2E2E2"/>
<path d="M285.832 265.337C285.831 265.237 285.813 264.759 285.836 264.283C285.892 263.229 286.556 262.542 287.556 262.473C289.825 262.313 291.892 264.296 291.807 266.592C291.771 267.54 291.027 268.097 290.446 268.732C289.852 269.38 287.731 269.396 287.04 268.971C286.26 268.493 285.522 266.629 285.838 265.332L285.832 265.337Z" fill="#E2E2E2"/>
<path d="M186.665 244.34C187.55 243.644 188.528 243.523 189.444 243.616C190.299 243.701 191.245 243.752 191.773 244.777C192.097 245.403 193.117 245.661 192.985 246.565C192.875 247.358 192.682 248.172 192.336 248.888C191.683 250.224 188.861 250.789 187.93 249.687C187.381 249.039 186.697 248.172 186.987 247.152C187.264 246.167 187.225 245.256 186.665 244.34Z" fill="#E2E2E2"/>
<path d="M268.848 258.67C269.896 258.751 270.484 259.527 271.024 260.356C272.474 262.56 272.324 263.481 270.242 265.086C269.384 265.746 268.442 265.763 267.498 265.327C266.749 264.985 266.413 264.372 266.36 263.532C266.299 262.623 266.043 261.728 266.014 260.82C265.954 259.065 267.057 258.238 268.853 258.671L268.848 258.67Z" fill="#E2E2E2"/>
<path d="M147.827 241.832C147.903 240.511 147.938 239.348 146.993 238.264C146.283 237.45 147.848 235.683 149.12 235.744C150.553 235.811 151.51 236.641 152.296 237.711C153.583 239.466 153.47 240.378 151.858 241.844C150.43 243.141 149.493 243.159 147.826 241.837L147.827 241.832Z" fill="#E2E2E2"/>
<path d="M325.576 271.964C325.76 270.788 326.296 270.333 327.125 270.173C328.035 269.998 328.854 270.249 329.479 270.88C330.043 271.448 330.513 272.128 330.975 272.791C331.74 273.892 331.416 275.088 330.244 275.761C329.879 275.973 329.59 276.314 329.221 276.52C328.877 276.71 328.459 276.932 328.094 276.904C326.644 276.787 325.326 275.199 325.406 273.747C325.447 273.045 325.534 272.347 325.571 271.963L325.576 271.964Z" fill="#E2E2E2"/>
<path d="M205.531 268.157C206.355 268.65 207.235 269.069 207.983 269.656C208.945 270.409 209.104 273.117 208.203 274.171C207.368 275.148 206.379 276.008 205.401 276.859C204.875 277.316 204.247 277.326 203.937 276.578C203.236 274.899 202.461 273.226 201.993 271.477C201.8 270.745 202.197 269.762 202.547 268.999C202.941 268.141 204.099 267.951 205.526 268.156L205.531 268.157Z" fill="#E2E2E2"/>
<path d="M284.771 283.708C287.591 284.432 288.768 286.594 287.656 289.292C287.107 290.628 285.791 291.341 284.636 292.111C284.438 292.245 283.773 291.961 283.538 291.686C283.057 291.119 282.704 290.43 282.328 289.779C282.14 289.456 282.104 289.016 281.862 288.755C280.951 287.766 281.138 286.68 281.464 285.553C281.93 283.941 283.101 283.278 284.766 283.707L284.771 283.708Z" fill="#E2E2E2"/>
<path d="M168.46 267.377C167.639 268.007 166.924 268.554 166.128 269.168C165.059 268.702 163.758 268.411 163.402 266.892C163.364 266.738 163.074 266.646 162.911 266.516C162.23 265.957 161.995 265.223 162.122 264.371C162.244 263.575 162.361 262.772 162.542 261.993C162.689 261.364 163.923 260.833 164.903 261C165.751 261.147 166.589 261.376 167.404 261.647C167.727 261.756 168.125 262.02 168.247 262.31C168.748 263.533 169.487 264.74 168.746 266.158C168.531 266.571 168.521 267.086 168.454 267.381L168.46 267.377Z" fill="#E2E2E2"/>
<path d="M188.556 354.825C189.418 355.2 190.286 355.543 190.799 356.487C191.341 357.473 191.915 358.424 192.12 359.559C192.256 360.316 192.155 360.928 191.491 361.396C190.591 362.032 189.684 362.599 188.507 362.154C188.356 362.099 188.188 362.103 188.029 362.062C187.432 361.906 186.64 362.448 186.243 361.688C185.781 360.806 185.053 360.004 185.29 358.849C185.383 358.392 185.208 357.889 185.206 357.408C185.207 355.608 186.069 354.761 187.876 354.752C188.09 354.752 188.305 354.798 188.551 354.824L188.556 354.825Z" fill="#E2E2E2"/>
<path d="M145.205 282.78C144.785 283.529 144.387 284.298 143.938 285.031C143.446 285.829 142.659 286.179 141.768 286.306C141.452 286.35 141.11 286.253 140.801 286.314C139.092 286.654 139.107 286.662 138.908 284.922C138.773 283.748 138.649 282.571 138.439 281.409C138.285 280.554 138.301 279.733 138.995 279.193C139.738 278.61 140.696 278.293 141.589 278.751C142.734 279.341 144.049 279.667 144.762 280.983C145.224 281.839 145.38 281.811 145.21 282.781L145.205 282.78Z" fill="#E2E2E2"/>
<path d="M173.67 309.935C174.106 307.879 175.186 307.392 177.028 308.069C178.876 308.747 179.799 310.245 180.664 311.804C180.842 312.125 180.783 312.678 180.644 313.048C180.104 314.452 177.946 315.719 176.432 315.585C175.519 315.504 174.88 314.891 174.586 314.161C174.127 313.019 173.895 311.779 173.599 310.574C173.542 310.328 173.65 310.041 173.665 309.934L173.67 309.935Z" fill="#E2E2E2"/>
<path d="M200.655 315.42C200.227 316.236 199.857 317.13 199.321 317.915C198.61 318.953 197.591 319.587 196.276 319.34C194.756 319.053 194.161 317.802 193.668 316.533C193.164 315.246 193.605 313.953 193.841 312.693C193.905 312.361 194.484 311.982 194.888 311.887C196.621 311.478 198.071 312.028 199.173 313.434C199.61 313.988 200.016 314.562 200.656 315.415L200.655 315.42Z" fill="#E2E2E2"/>
<path d="M312.488 337.092C313.009 336.091 312.969 334.773 314.362 334.451C314.569 334.402 314.829 334.274 314.975 334.355C315.996 334.91 317.215 335.322 317.937 336.155C318.667 336.999 318.954 338.255 319.325 339.364C319.525 339.956 319.24 340.439 318.683 340.869C317.813 341.543 316.944 342.201 315.842 342.318C315.298 342.376 314.488 342.309 314.199 341.961C313.03 340.578 312.417 338.931 312.492 337.098L312.488 337.092Z" fill="#E2E2E2"/>
<path d="M172.593 329.556C173.31 329.871 174.055 330.124 174.738 330.505C176.487 331.483 176.886 332.749 176.094 334.539C175.854 335.082 175.678 335.67 175.387 336.183C174.81 337.205 174.07 337.308 172.946 337.077C171.591 336.796 170.71 335.974 170.128 334.897C169.52 333.773 169.632 332.48 169.917 331.24C170.233 329.865 171.137 329.34 172.599 329.552L172.593 329.556Z" fill="#E2E2E2"/>
<path d="M148.038 354.683C147.063 354.595 146.63 354.053 146.457 353.211C146.199 351.945 145.819 350.688 145.721 349.406C145.586 347.689 147.733 346.561 149.394 347.37C150.839 348.076 151.723 349.289 152.355 350.673C152.996 352.07 151.989 353.969 150.404 354.401C149.648 354.611 148.832 354.595 148.043 354.684L148.038 354.683Z" fill="#E2E2E2"/>
<path d="M197.918 292.229C198.239 290.531 199.572 289.785 200.985 290.197C202.745 290.707 203.618 292.137 204.545 293.51C204.647 293.66 204.621 293.932 204.596 294.141C204.388 295.85 201.872 298.003 200.163 297.936C200.002 297.931 199.762 297.958 199.696 297.867C199.085 297.056 198.168 296.285 198.012 295.383C197.861 294.514 198.146 293.52 197.856 292.582C197.801 292.404 197.936 292.164 197.922 292.235L197.918 292.229Z" fill="#E2E2E2"/>
<path d="M182.481 265.881C184.316 264.745 185.996 264.968 187.564 266.094C189.244 267.293 189.109 270.555 187.376 271.673C187.102 271.851 186.832 272.034 186.583 272.242C185.871 272.825 185.201 272.754 184.55 272.149C184.511 272.11 184.463 272.085 184.423 272.052C181.423 269.383 181.54 270.648 182.485 265.887L182.481 265.881Z" fill="#E2E2E2"/>
<path d="M221.984 274.764C222.5 272.399 223.928 271.864 226.005 273.061C226.235 273.194 226.403 273.461 226.641 273.554C227.931 274.067 228.443 275.016 228.351 276.366C228.243 277.906 227.755 279.226 226.353 280.059C225.317 280.674 224.79 280.568 223.985 279.62C223.427 278.965 222.799 278.432 222.35 277.616C221.75 276.53 221.74 275.599 221.985 274.759L221.984 274.764Z" fill="#E2E2E2"/>
<path d="M141.189 305.323C141.036 305.716 141.004 305.825 140.956 305.915C140.603 306.531 138.172 307.698 137.467 307.589C137.254 307.558 137.036 307.443 136.833 307.467C136.088 307.569 135.36 307.826 134.845 306.924C134.481 306.29 133.903 305.819 134.048 304.929C134.138 304.377 133.837 303.771 133.783 303.182C133.751 302.831 133.782 302.425 133.931 302.114C134.543 300.827 135.921 300.826 137.008 300.627C137.808 300.483 138.739 301.011 139.144 302.029C139.331 302.498 139.841 302.83 140.114 303.284C140.546 303.999 140.906 304.762 141.194 305.324L141.189 305.323Z" fill="#E2E2E2"/>
<path d="M209.34 339.345C209.866 337.202 211.561 336.556 213.171 337.466C214.513 338.224 215.421 339.259 215.892 340.717C216.394 342.264 215.744 343.669 214.128 344.444C212.767 345.096 211.358 344.659 210.539 343.297C209.743 341.98 209.223 340.581 209.34 339.345Z" fill="#E2E2E2"/>
<path d="M300.663 309.35C301.871 309.822 302.961 311.08 303.578 312.675C303.994 313.747 302.68 315.807 301.43 316.391C299.217 317.428 298.723 317.255 297.751 314.981C297.218 313.731 296.822 312.449 297.191 311.043C297.614 309.412 298.548 308.814 300.663 309.35Z" fill="#E2E2E2"/>
<path d="M180.433 293.968C179.065 293.643 178.786 293.355 178.953 292.213C179.04 291.655 178.594 291.554 178.485 291.282C178.176 290.524 178.029 289.634 178.071 288.813C178.215 286.106 180.44 285.849 182.234 286.861C183.011 287.302 183.633 288.027 184.295 288.66C184.797 289.143 184.951 289.673 184.659 290.405C184.139 291.704 183.23 292.689 182.251 293.602C181.71 294.109 181.008 294.616 180.428 293.967L180.433 293.968Z" fill="#E2E2E2"/>
<path d="M316.965 315.332C316.791 314.469 317.154 313.855 317.927 313.497C318.849 313.073 319.704 313.023 320.706 313.513C322.351 314.319 322.939 315.768 323.472 317.316C323.505 317.416 323.509 317.532 323.505 317.635C323.469 318.312 321.193 320.6 320.326 320.689C319.219 320.801 318.331 320.317 317.758 319.33C317.62 319.095 317.501 318.848 317.325 318.647C316.44 317.632 316.344 316.528 316.97 315.333L316.965 315.332Z" fill="#E2E2E2"/>
<path d="M255.484 330.593C254.112 330.32 253.116 328.871 253.292 327.412C253.356 326.887 253.391 326.351 253.366 325.829C253.245 323.682 254.778 322.577 256.69 323.57C257.933 324.216 258.96 325.175 259.6 326.493C260.388 328.121 258.328 331.055 256.275 330.766C256.01 330.731 255.748 330.655 255.484 330.593Z" fill="#E2E2E2"/>
<path d="M257.513 303.692C257.875 301.805 258.682 301.27 260.455 301.793C261.986 302.249 263.751 304.336 263.84 305.804C263.976 308.006 261.115 310.051 259.169 309.041C258.149 308.511 257.506 307.485 257.422 306.29C257.357 305.432 257.478 304.557 257.518 303.693L257.513 303.692Z" fill="#E2E2E2"/>
<path d="M255.679 349.106C254.873 351.733 253.072 352.74 250.973 351.987C250.509 351.82 249.941 351.434 249.791 351.019C249.218 349.438 248.879 347.807 249.327 346.097C249.537 345.298 250.017 344.784 250.758 344.785C251.91 344.787 253.146 344.685 253.88 345.974C254.301 346.713 254.97 347.305 255.409 348.037C255.651 348.438 255.644 348.99 255.673 349.11L255.679 349.106Z" fill="#E2E2E2"/>
<path d="M224.49 297.827C224.188 298.479 223.851 299.093 223.618 299.737C223.154 301.01 221.991 301.768 220.619 301.63C220.134 301.579 219.651 301.538 219.226 301.493C218.7 299.968 218.16 298.481 217.677 296.974C217.441 296.245 217.958 294.993 218.635 294.538C219.51 293.949 220.419 293.862 221.375 294.401C222.764 295.184 223.952 296.147 224.491 297.822L224.49 297.827Z" fill="#E2E2E2"/>
<path d="M274.039 326.977C275.079 327.108 275.934 327.194 276.783 327.336C277.036 327.379 277.321 327.497 277.49 327.675C278.2 328.412 278.918 329.155 279.529 329.971C279.753 330.27 279.787 330.799 279.741 331.202C279.58 332.533 278.02 334.243 276.716 334.458C275.967 334.58 275.202 334.434 274.698 333.716C274.202 333.01 273.59 332.365 273.203 331.608C272.68 330.583 272.959 329.483 273.273 328.442C273.427 327.94 273.763 327.493 274.045 326.978L274.039 326.977Z" fill="#E2E2E2"/>
<path d="M153.137 325.954C154.13 326.625 155.219 327.288 156.217 328.069C156.82 328.545 156.846 329.876 156.401 330.646C156.238 330.923 156.005 331.16 155.814 331.421C155.48 331.884 155.239 332.62 154.804 332.767C154.013 333.027 153.107 332.963 152.25 332.971C152.026 332.969 151.769 332.758 151.589 332.583C151.444 332.44 151.448 332.118 151.294 332.025C149.569 330.979 150.013 329.29 150.007 327.744C150.005 326.392 150.197 326.184 151.562 326.002C152.033 325.941 152.518 325.971 153.137 325.954Z" fill="#E2E2E2"/>
<path d="M303.849 295.353C302.093 294.546 301.634 293.049 301.184 291.59C300.839 290.475 301.346 289.523 302.012 288.633C302.687 287.724 303.543 287.695 304.459 288.064C305.243 288.381 306.063 288.706 306.733 289.21C308.276 290.362 308.107 293.174 306.439 294.174C305.583 294.689 304.613 295.014 303.848 295.358L303.849 295.353Z" fill="#E2E2E2"/>
<path d="M213.766 318.478C213.821 318.217 213.987 317.925 213.915 317.703C213.765 317.204 213.592 316.639 214.11 316.388C214.748 316.083 215.328 315.589 216.202 315.793C218.468 316.327 220.046 318.033 220.057 320.311C220.063 320.797 219.832 321.405 219.498 321.759C218.482 322.838 217.09 322.884 215.724 322.851C215.506 322.846 215.268 322.592 215.096 322.402C214.842 322.118 214.709 321.696 214.412 321.504C213.179 320.698 213.42 319.601 213.765 318.483L213.766 318.478Z" fill="#E2E2E2"/>
<path d="M295.929 331.004C296.368 331.271 296.701 331.382 296.908 331.609C297.519 332.29 298.098 332.996 298.647 333.723C299.597 334.975 299.54 336.143 298.479 337.375C297.647 338.337 296.799 338.733 295.576 338.144C295.032 337.883 294.45 338.11 293.863 337.528C292.78 336.454 293.093 335.256 292.982 334.066C292.965 333.859 293.064 333.643 293.095 333.425C293.19 332.764 292.878 331.917 293.751 331.583C294.483 331.306 295.265 331.169 295.924 330.998L295.929 331.004Z" fill="#E2E2E2"/>
<path d="M340.313 317.17C341.288 317.555 342.46 318.495 343.045 320.069C343.117 320.265 343.198 320.521 343.128 320.695C342.75 321.635 342.333 322.557 341.916 323.479C341.561 324.267 340.994 324.529 340.089 324.486C339.065 324.441 338.25 324.363 337.69 323.311C337.234 322.451 336.564 321.753 336.945 320.636C337.126 320.102 336.948 319.452 337.043 318.876C337.333 317.094 337.917 316.715 340.312 317.175L340.313 317.17Z" fill="#E2E2E2"/>
<path d="M291.279 360.001C289.924 359.313 289.154 358.32 289.232 356.769C289.281 355.808 289.058 354.8 289.299 353.896C289.765 352.122 291.31 351.652 292.844 352.661C294.72 353.897 295.496 356.541 294.534 358.293C294.142 359.006 293.581 359.451 292.804 359.641C292.283 359.771 291.762 359.885 291.281 359.996L291.279 360.001Z" fill="#E2E2E2"/>
<path d="M158.338 283.55C160.009 282.676 162.216 282.895 163.514 284.016C163.721 284.191 163.899 284.403 164.1 284.582C165.381 285.71 165.399 285.86 164.512 287.25C164.25 287.659 164.022 288.09 163.76 288.505C162.493 290.537 160.276 290.561 159.174 288.47C158.39 286.984 157.905 285.377 158.338 283.55Z" fill="#E2E2E2"/>
<path d="M244.144 301.002C243.966 301.631 243.819 302.203 243.644 302.764C243.255 304.005 241.52 305.483 240.3 305.505C239.95 305.511 239.497 305.205 239.251 304.907C238.672 304.201 238.033 303.478 237.718 302.645C237.476 302.004 237.617 301.185 237.709 300.462C237.796 299.79 238.051 299.139 238.252 298.421C240.965 297.417 242.159 297.913 244.145 300.997L244.144 301.002Z" fill="#E2E2E2"/>
<path d="M271.888 348.635C273.727 349.061 275.271 350.913 275.403 352.785C275.463 353.637 275.075 354.273 274.489 354.771C273.959 355.222 273.33 355.566 272.72 355.914C272.509 356.035 272.15 356.138 271.976 356.042C270.911 355.447 269.746 354.936 269.39 353.579C269.101 352.474 268.808 351.39 269.166 350.232C269.669 348.591 270.21 348.246 271.893 348.636L271.888 348.635Z" fill="#E2E2E2"/>
<path d="M324.054 299.27C323.191 298.599 322.262 298.029 321.542 297.265C321.144 296.839 320.924 296.081 320.935 295.478C320.957 294.574 321.195 293.66 321.462 292.787C321.685 292.057 322.963 291.353 323.747 291.675C325.271 292.296 326.876 292.938 327.391 294.796C327.755 296.108 326.883 297.793 325.626 298.309C325.104 298.527 324.642 298.898 324.049 299.269L324.054 299.27Z" fill="#E2E2E2"/>
<path d="M196.224 337.623C195.626 339.977 193.532 340.937 191.628 340.551C191.251 340.479 190.873 339.947 190.685 339.54C190.389 338.904 190.194 338.209 190.071 337.517C189.906 336.583 189.786 335.631 189.789 334.687C189.793 334.343 190.145 333.784 190.438 333.7C191.138 333.505 191.979 333.311 192.627 333.524C194.221 334.055 195.415 335.176 196.094 336.747C196.236 337.072 196.206 337.473 196.224 337.623Z" fill="#E2E2E2"/>
<path d="M243.279 283.259C242.904 282.685 242.492 282.058 242.079 281.436C241.698 280.862 241.621 277.894 242.124 277.557C242.723 277.155 243.473 276.835 244.179 276.772C245.415 276.664 246.467 277.304 247.386 278.086C247.606 278.275 247.741 278.629 247.799 278.927C247.928 279.615 248.04 280.31 248.047 281.005C248.061 281.885 247.574 282.548 246.861 283.001C245.737 283.72 244.554 284.145 243.275 283.253L243.279 283.259Z" fill="#E2E2E2"/>
<path d="M281.369 306.207C282.166 306.569 282.81 307.454 283.315 308.522C283.879 309.716 283.582 310.77 282.8 311.664C282.453 312.062 281.804 312.235 281.267 312.424C279.823 312.93 278.063 312.478 277.417 311.383C277.161 310.948 277.025 310.379 277.028 309.873C277.031 309.232 277.258 308.592 277.341 307.945C277.562 306.275 278.279 305.719 279.925 305.982C280.294 306.043 280.664 306.098 281.364 306.206L281.369 306.207Z" fill="#E2E2E2"/>
<path d="M240.081 323.077C239.06 324.567 238.709 326.368 236.702 326.714C236.006 326.831 235.401 326.772 234.9 326.259C233.997 325.334 233.418 324.273 233.537 322.918C233.603 322.163 233.557 321.398 233.659 320.65C233.786 319.74 234.337 319.319 235.238 319.434C236.089 319.545 236.91 319.671 237.552 320.431C238.092 321.072 238.882 321.495 239.501 322.079C239.771 322.329 239.891 322.738 240.076 323.076L240.081 323.077Z" fill="#E2E2E2"/>
<path d="M338.757 342.857C338.442 344.441 337.218 345.626 335.951 345.842C334.779 346.045 333.659 345.522 333.406 344.393C333.123 343.144 332.988 341.834 333.03 340.558C333.068 339.381 333.755 338.98 334.867 338.76C336.104 338.512 337.058 338.737 337.869 339.733C338.713 340.772 338.996 341.906 338.756 342.862L338.757 342.857Z" fill="#E2E2E2"/>
<path d="M232.411 341.214C234.678 341.664 236.238 344.166 235.475 345.559C234.921 346.57 234.041 347.403 233.253 348.275C233.128 348.413 232.74 348.391 232.502 348.329C230.783 347.906 229.684 346.995 229.754 345.433C229.787 344.745 229.572 344.041 229.595 343.351C229.657 341.343 230.462 340.762 232.41 341.219L232.411 341.214Z" fill="#E2E2E2"/>
<path d="M160.772 307.237C160.279 308.306 159.953 309.026 159.612 309.744C158.748 311.556 156.023 311.968 154.614 310.502C153.63 309.483 153.911 305.68 155.113 305.019C156.069 304.492 157.204 304.287 158.177 304.985C159.121 305.667 159.946 306.509 160.777 307.238L160.772 307.237Z" fill="#E2E2E2"/>
<path d="M267.455 282.061C267.579 282.936 267.669 283.694 267.807 284.441C267.99 285.447 267.488 286.269 266.999 287.021C266.429 287.898 264.997 287.858 264.216 287.087C263.488 286.368 262.683 285.718 262.03 284.935C261.297 284.048 261.414 282.296 262.127 281.462C262.76 280.722 264.46 280.427 265.415 280.918C266.084 281.266 266.734 281.657 267.454 282.066L267.455 282.061Z" fill="#E2E2E2"/>
<path d="M344.75 302.99C343.654 302.201 342.717 301.593 341.86 300.891C340.864 300.074 340.512 297.856 341.316 296.872C341.765 296.327 342.511 295.948 343.203 295.716C343.571 295.593 344.111 295.905 344.548 296.073C344.946 296.228 345.323 296.441 345.695 296.653C347.811 297.863 347.877 300.782 345.832 302.112C345.432 302.375 345.084 302.72 344.755 302.991L344.75 302.99Z" fill="#E2E2E2"/>
<path d="M165.969 352.23C166.854 351.534 167.832 351.414 168.748 351.506C169.603 351.592 170.548 351.642 171.077 352.668C171.4 353.293 172.42 353.552 172.289 354.455C172.178 355.248 171.986 356.062 171.64 356.779C170.987 358.115 168.165 358.68 167.234 357.577C166.685 356.929 166.001 356.062 166.29 355.043C166.568 354.057 166.529 353.147 165.969 352.23Z" fill="#E2E2E2"/>
<path d="M146.6 264.874C145.404 264.175 144.273 263.624 144.814 262.053C143.483 261.406 143.06 260.208 142.629 258.919C144.035 257.957 145.523 257.815 147.026 258.114C147.926 258.292 148.405 258.895 148.792 259.924C149.521 261.839 148.924 263.018 147.495 264.101C147.201 264.327 146.932 264.588 146.6 264.874Z" fill="#E2E2E2"/>
</g>
<path d="M282.496 309.63C282.349 309.63 282.275 309.556 282.201 309.482C282.054 309.335 282.054 309.04 282.201 308.892C308.605 285.586 324.978 288.315 325.642 288.462C325.863 288.536 326.011 288.684 325.937 288.905C325.863 289.126 325.716 289.274 325.495 289.2C325.347 289.2 308.752 286.397 282.717 309.482C282.644 309.63 282.57 309.63 282.496 309.63Z" fill="#060633"/>
<path d="M209.628 309.63C209.554 309.63 209.406 309.556 209.333 309.482C192.738 292.887 167.367 287.208 167.072 287.135C166.851 287.061 166.703 286.84 166.777 286.692C166.851 286.471 167.072 286.323 167.219 286.397C167.441 286.471 193.033 292.15 209.849 308.966C209.996 309.113 209.996 309.408 209.849 309.556C209.849 309.63 209.775 309.63 209.628 309.63Z" fill="#060633"/>
<path d="M291.051 280.792C290.83 280.792 290.683 280.645 290.683 280.497L286.552 260.657C286.479 260.436 286.626 260.215 286.848 260.215C287.069 260.141 287.29 260.289 287.29 260.51L291.42 280.35C291.494 280.571 291.347 280.792 291.125 280.792C291.125 280.792 291.125 280.792 291.051 280.792Z" fill="#060633"/>
<path d="M197.901 284.775C197.679 284.775 197.458 284.554 197.532 284.333L199.228 262.944C199.228 262.723 199.449 262.575 199.671 262.575C199.892 262.575 200.039 262.796 200.039 263.018L198.343 284.406C198.269 284.628 198.122 284.775 197.901 284.775Z" fill="#060633"/>
<path d="M193.843 176.209C193.843 176.209 190.082 173.997 189.049 176.136C186.321 181.667 192.811 183.88 196.204 183.437L193.843 176.209Z" fill="#FB9391"/>
<path d="M271.727 382.203H271.653C268.703 381.613 261.402 379.179 254.911 377.114C251.298 375.934 248.2 374.902 246.504 374.385C241.857 373.058 222.091 371.214 221.944 371.214C221.501 371.14 184.698 363.839 180.568 362.953C180.347 362.88 180.199 362.659 180.273 362.511C180.347 362.29 180.494 362.142 180.715 362.216C184.772 363.101 221.649 370.403 222.017 370.476C222.755 370.55 241.931 372.32 246.725 373.722C248.421 374.238 251.593 375.27 255.206 376.45C261.328 378.442 268.925 380.949 271.875 381.539C272.096 381.613 272.244 381.761 272.17 381.982C272.096 382.056 271.949 382.203 271.727 382.203Z" fill="#060633"/>
<path d="M253.142 206.006C246.946 193.468 243.701 179.676 243.554 165.663C243.48 160.942 243.111 155.632 242.669 149.584C242.521 144.717 241.12 139.701 238.317 135.129C230.794 122.812 215.232 117.723 201.883 123.181C185.878 129.745 179.019 148.331 186.468 163.598C186.616 163.966 186.837 164.261 186.985 164.63C191.262 173.407 200.408 205.563 219.731 200.327L222.387 213.381C222.387 213.455 237.948 217.806 253.142 206.006Z" fill="#FB9391"/>
<path d="M253.142 206.006C246.946 193.468 243.701 179.676 243.554 165.663C243.48 160.942 243.111 155.632 242.669 149.584C242.521 144.717 241.12 139.701 238.317 135.129C230.794 122.812 215.232 117.723 201.883 123.181C185.878 129.745 179.019 148.331 186.468 163.598C186.616 163.966 186.837 164.261 186.985 164.63C191.262 173.407 200.408 205.563 219.731 200.327L222.387 213.381C222.387 213.455 237.948 217.806 253.142 206.006Z" fill="#FB9391"/>
<path d="M253.142 206.006C246.946 193.468 243.701 179.676 243.554 165.663C243.48 160.942 243.111 155.632 242.669 149.584C242.521 144.717 241.12 139.701 238.317 135.129C230.794 122.812 215.232 117.723 201.883 123.181C185.878 129.745 179.019 148.331 186.468 163.598C186.616 163.966 186.837 164.261 186.985 164.63C191.262 173.407 200.408 205.563 219.731 200.327L222.387 213.381C222.387 213.455 237.948 217.806 253.142 206.006Z" fill="#FB9391"/>
<path d="M191.849 166.491C192.018 165.626 193.01 164.964 194.218 164.312C196.689 162.887 200.474 161.064 202.642 161.703C203.574 161.912 203.496 162.739 202.538 163.486C201.256 164.466 199.386 164.797 197.962 165.439C196.269 166.193 195.419 166.944 193.602 167.402C192.45 167.682 191.736 167.234 191.849 166.491Z" fill="#232730"/>
<path d="M217.325 157.891C217.67 157.08 218.779 156.641 220.097 156.256C222.812 155.379 226.894 154.388 228.88 155.466C229.748 155.865 229.499 156.658 228.406 157.187C226.947 157.878 225.049 157.811 223.523 158.141C221.709 158.524 220.721 159.081 218.848 159.149C217.664 159.182 217.059 158.594 217.325 157.891Z" fill="#232730"/>
<path d="M199.171 169.003C196.837 168.622 198.166 172.929 199.53 173.261C200.894 173.593 202.128 169.487 199.171 169.003Z" fill="#1D1A1A"/>
<path d="M222.773 162.366C220.44 161.984 221.769 166.291 223.133 166.623C224.497 166.955 225.731 162.849 222.773 162.366Z" fill="#1D1A1A"/>
<path d="M218.998 175.666C212.025 179.424 210.303 178.869 209.621 178.145C209.124 177.61 209.189 176.897 209.291 175.588C209.364 174.669 209.467 173.36 209.421 171.538C209.405 170.639 209.365 169.754 209.277 168.9C209.254 168.645 209.429 168.437 209.684 168.414C209.939 168.391 210.147 168.566 210.17 168.821C210.249 169.715 210.304 170.623 210.32 171.522C210.356 173.384 210.254 174.692 210.172 175.652C210.092 176.778 210.058 177.27 210.287 177.532C210.616 177.902 212.125 178.385 218.556 174.895C218.776 174.759 219.042 174.864 219.162 175.059C219.258 175.27 219.217 175.531 218.998 175.666Z" fill="#AB4847"/>
<path d="M214.642 188.157C213.167 188.157 211.544 187.789 209.922 186.904C209.7 186.756 209.627 186.461 209.7 186.24C209.848 186.019 210.143 185.945 210.364 186.019C218.034 190.149 224.009 181.815 224.23 181.446C224.377 181.225 224.672 181.151 224.894 181.298C225.115 181.446 225.189 181.741 225.041 181.962C224.967 182.11 220.69 188.157 214.642 188.157Z" fill="#AB4847"/>
<path d="M242.964 138.816L244.512 159.836L239.202 161.237L224.968 139.406L242.964 138.816Z" fill="#232730"/>
<path d="M238.17 161.016C238.17 159.91 238.612 158.951 239.35 158.14C240.825 156.517 243.701 154.084 247.02 155.264C251.888 156.96 249.528 168.834 240.972 167.654C240.899 167.654 238.17 166.695 238.17 161.016Z" fill="#FB9391"/>
<path d="M240.825 132.99C242.669 130.482 241.341 126.352 238.391 125.393C238.022 125.246 237.58 125.172 237.211 124.951C236.694 124.582 236.473 123.992 236.326 123.475C235.883 122.295 235.441 121.115 234.998 119.862C234.851 119.493 234.703 119.05 234.408 118.829C234.113 118.608 233.744 118.608 233.376 118.534C231.31 118.313 229.024 118.165 227.328 119.419C225.115 118.091 222.681 116.616 220.026 116.838C219.215 116.911 218.404 117.133 217.519 117.133C214.273 117.206 211.249 114.183 208.226 115.215C207.414 115.51 206.75 116.026 206.013 116.395C203.874 117.575 201.366 117.796 199.006 118.534C196.646 119.272 194.286 120.82 193.844 123.18C193.77 123.697 193.77 124.213 193.475 124.656C193.18 125.098 192.737 125.319 192.295 125.467C189.787 126.573 187.058 127.237 184.993 129.007C182.928 130.777 182.117 134.317 184.108 136.161C182.486 136.825 181.01 137.931 180.125 139.48C179.24 141.029 179.167 143.02 180.052 144.495C180.199 144.79 180.42 145.085 180.494 145.454C180.494 146.118 179.904 146.487 179.388 146.929C176.954 148.699 176.29 152.534 178.06 155.042C178.429 155.558 178.872 156.075 179.093 156.665C179.24 157.181 179.167 157.771 179.24 158.361C179.388 159.91 180.715 161.311 182.264 161.532C184.182 161.827 185.952 160.574 187.501 159.467C187.575 160.205 188.46 160.5 189.197 160.574C193.77 160.795 198.269 157.402 199.228 152.977C201.883 153.198 205.128 153.124 206.308 150.764C206.603 150.248 206.677 149.732 206.824 149.142C207.267 147.224 207.709 145.38 208.152 143.463C208.963 143.315 209.627 144.126 209.922 144.938C210.143 145.749 210.143 146.634 210.512 147.298C211.471 149.068 213.978 148.994 215.97 148.625C217.076 148.404 218.182 148.257 219.215 147.667C220.174 147.15 220.985 146.118 221.059 145.012C222.091 146.708 224.525 146.929 226.516 146.708C231.532 146.192 235.883 144.274 240.235 141.766C241.857 140.808 242.89 140.439 243.185 138.448C243.406 136.53 242.521 134.244 240.825 132.99Z" fill="#232730"/>
<path d="M302.852 275.113H190.451C188.829 275.113 187.427 276.441 187.427 278.137V356.316C187.427 357.938 188.755 359.34 190.451 359.34H302.852C304.474 359.34 305.876 358.012 305.876 356.316V278.137C305.802 276.441 304.474 275.113 302.852 275.113Z" fill="#BDBDBA"/>
<path d="M216.56 438.846C216.56 438.846 184.33 453.081 177.028 454.924C169.653 456.768 145.757 453.523 157.705 438.846C169.653 424.095 179.757 431.913 201.441 420.924C223.124 409.935 216.56 438.846 216.56 438.846Z" fill="white"/>
<path d="M292.894 346.875C292.894 346.875 334.786 322.02 357.281 349.162C379.85 376.303 339.802 397.47 330.14 406.173C320.478 414.95 309.415 420.924 297.467 422.251C285.519 423.653 281.831 424.98 268.039 429.627C254.247 434.199 242.742 438.403 241.34 439.288C239.939 440.173 217.444 448.065 217.444 448.065C217.444 448.065 194.433 425.054 193.991 418.195C193.991 418.195 216.559 398.134 222.976 392.307C229.392 386.481 260.221 379.106 265.753 371.73C271.284 364.355 292.894 346.875 292.894 346.875Z" fill="#FA7267"/>
<path d="M246.651 321.209C248.891 321.209 250.707 319.393 250.707 317.153C250.707 314.912 248.891 313.096 246.651 313.096C244.411 313.096 242.594 314.912 242.594 317.153C242.594 319.393 244.411 321.209 246.651 321.209Z" fill="white"/>
</svg>
