<svg width="235" height="280" viewBox="0 0 235 280" fill="none" xmlns="http://www.w3.org/2000/svg">
<mask id="mask0_7186_32545" style="mask-type:alpha" maskUnits="userSpaceOnUse" x="0" y="0" width="235" height="280">
<rect width="235" height="280" fill="#8AD5F0"/>
</mask>
<g mask="url(#mask0_7186_32545)">
<g opacity="0.5">
<path d="M78.8763 287.498C78.8354 287.507 78.7939 287.514 78.7484 287.518C78.3046 287.551 77.9197 287.218 77.8877 286.777C76.4571 267.528 61.4266 249.868 45.5089 231.174C27.9028 210.495 9.7005 189.111 6.89742 162.795C6.85212 162.354 7.16906 161.957 7.60983 161.911C8.05059 161.866 8.44506 162.184 8.4935 162.624C11.2417 188.445 29.2855 209.637 46.7307 230.129C62.8208 249.031 78.02 266.884 79.4888 286.654C79.5173 287.053 79.2526 287.405 78.8755 287.495L78.8763 287.498Z" fill="#B7535E"/>
<path d="M7.62429 163.479C2.65211 157.343 -0.16627 148.472 4.97613 146.812C10.1185 145.151 11.2795 158.992 7.62429 163.479Z" fill="#B7535E"/>
<path d="M8.30158 166.999C14.5832 152.413 19.02 155.148 20.3816 157.001C21.7431 158.855 17.6156 167.615 8.30158 166.999Z" fill="#B7535E"/>
<path d="M8.15172 171.601C-7.20222 161.707 -7.66859 166.367 -6.67636 169.75C-5.68337 173.136 5.29116 172.708 8.15172 171.601Z" fill="#B7535E"/>
<path d="M11.3453 176.113C18.9129 166.267 23.0307 166.883 24.9035 168.903C26.7764 170.924 28.0779 174.601 11.3453 176.113Z" fill="#B7535E"/>
<path d="M11.3188 179.771C-5.54705 176.294 -2.95521 180.397 -1.04302 183.043C2.01821 187.277 9.28487 183.788 11.3188 179.771Z" fill="#B7535E"/>
<path d="M13.6679 186.821C17.2315 177.979 24.4731 174.845 26.8502 180.458C29.2304 186.07 18.8074 186.638 13.6679 186.821Z" fill="#B7535E"/>
<path d="M16.5339 190.989C9.80974 189.093 0.909584 190.381 3.56954 195.843C6.2295 201.305 16.5339 190.989 16.5339 190.989Z" fill="#B7535E"/>
<path d="M19.993 196.463C25.7937 188.998 30.9521 191.095 29.7527 194.519C28.4669 198.179 22.9875 196.071 19.993 196.463Z" fill="#B7535E"/>
<path d="M22.2788 201.437C14.4038 201.036 7.31968 200.387 9.55495 205.001C11.7902 209.614 20.5458 202.942 22.2788 201.437Z" fill="#B7535E"/>
<path d="M26.3141 206.019C31.9346 198.773 37.4337 199.584 35.1331 203.708C32.6589 208.149 26.3141 206.019 26.3141 206.019Z" fill="#B7535E"/>
<path d="M27.4512 209.357C18.8831 210.367 12.1005 212.083 16.6862 214.174C21.272 216.266 24.5253 212.781 27.4512 209.357Z" fill="#B7535E"/>
<path d="M31.3491 212.755C37.1055 206.83 41.601 207.721 40.603 210.569C38.8893 215.456 31.3491 212.755 31.3491 212.755Z" fill="#B7535E"/>
<path d="M32.9163 216.263C22.6623 217.346 19.039 221.354 22.7702 221.936C26.5013 222.517 31.9163 219.075 32.9163 216.263Z" fill="#B7535E"/>
<path d="M37.1267 219.967C39.4081 215.316 46.282 216.058 43.4105 218.163C40.539 220.269 41.0833 219.78 37.1267 219.967Z" fill="#B7535E"/>
<path d="M38.6599 222.461C25.3261 222.867 26.7416 227.008 32.5672 226.835C38.3929 226.661 38.6599 222.461 38.6599 222.461Z" fill="#B7535E"/>
<path d="M41.1948 224.844C44.2727 220.777 48.3358 219.101 48.7558 222.089C49.1758 225.077 44.6232 223.821 41.1948 224.844Z" fill="#B7535E"/>
<path d="M43.0693 228.565C33.1615 228.3 30.3004 232.734 33.9017 233.37C37.5031 234.006 41.9335 230.403 43.0693 228.565Z" fill="#B7535E"/>
<path d="M46.643 231.259C51.9594 223.099 55.0798 226.439 54.3536 228.936C53.6274 231.434 46.643 231.259 46.643 231.259Z" fill="#B7535E"/>
<path d="M47.8504 233.876C41.3768 234.131 35.0222 237.671 39.7362 240.286C44.4494 242.898 47.8504 233.876 47.8504 233.876Z" fill="#B7535E"/>
<path d="M51.358 236.819C57.4822 232.076 60.5361 233.619 59.9338 236.176C59.3315 238.734 51.358 236.819 51.358 236.819Z" fill="#B7535E"/>
<path d="M53.9337 239.91C43.6057 240.028 45.6434 245.804 48.7325 246.283C51.8217 246.762 53.9337 239.91 53.9337 239.91Z" fill="#B7535E"/>
<path d="M57.6322 243.313C61.999 240.376 66.6756 239.686 67.3884 241.618C68.1012 243.55 63.08 242.808 57.6322 243.313Z" fill="#B7535E"/>
<path d="M58.4258 246.603C47.6511 245.877 52.0632 250.945 53.6878 251.603C55.7764 252.454 57.7782 250.001 58.4258 246.603Z" fill="#B7535E"/>
</g>
<path d="M77.2167 263.283C77.1653 263.283 77.114 263.279 77.0587 263.271C76.5216 263.184 76.1582 262.679 76.2451 262.145C80.0011 238.843 67.1295 213.574 53.4956 186.823C38.4162 157.233 22.8272 126.636 26.9545 94.5378C27.0256 94.0006 27.5154 93.6175 28.0525 93.6886C28.5896 93.7597 28.9688 94.2494 28.9017 94.7866C24.8494 126.28 40.3041 156.605 55.2453 185.927C69.0253 212.973 82.0431 238.519 78.1843 262.453C78.1053 262.935 77.6906 263.279 77.2167 263.279V263.283Z" fill="#B7535E"/>
<path d="M27.6239 95.5568C23.4492 86.848 22.6119 75.4969 29.1998 74.9795C35.7876 74.4621 33.2441 91.2557 27.6239 95.5568Z" fill="#B7535E"/>
<path d="M27.4336 99.9368C39.0414 84.3676 43.5439 88.878 44.6379 91.4689C45.7319 94.0599 38.3383 103.31 27.4336 99.9368Z" fill="#B7535E"/>
<path d="M25.9499 105.367C10.4913 89.2453 8.61523 94.6562 8.83641 98.9613C9.05758 103.27 22.2333 105.873 25.9499 105.367Z" fill="#B7535E"/>
<path d="M28.4688 111.639C40.2621 102.074 44.9858 103.973 46.6407 106.908C48.2956 109.842 48.8011 114.586 28.4688 111.639Z" fill="#B7535E"/>
<path d="M27.4002 115.984C8.32382 107.066 10.2433 112.682 11.7678 116.371C14.2087 122.276 23.8417 120.186 27.4002 115.984Z" fill="#B7535E"/>
<path d="M28.1953 125.036C34.9412 115.53 44.4438 113.855 45.68 121.205C46.9202 128.555 34.3606 126.276 28.1953 125.036Z" fill="#B7535E"/>
<path d="M30.4187 130.807C22.958 126.644 12.0058 125.652 13.6212 132.904C15.2366 140.155 30.4187 130.807 30.4187 130.807Z" fill="#B7535E"/>
<path d="M32.9883 138.299C42.0051 131.063 47.5464 135.021 45.149 138.753C42.5818 142.742 36.6614 138.682 32.9883 138.299Z" fill="#B7535E"/>
<path d="M34.2955 144.863C25.0417 142.154 16.7989 139.373 18.1497 145.495C19.5004 151.617 31.8073 146.163 34.2955 144.863Z" fill="#B7535E"/>
<path d="M37.7969 151.459C46.5373 144.433 52.8487 146.956 48.9425 151.21C44.7402 155.792 37.7969 151.459 37.7969 151.459Z" fill="#B7535E"/>
<path d="M38.207 155.752C27.7288 154.524 19.174 154.642 24.0359 158.43C28.8979 162.218 33.7558 158.995 38.207 155.752Z" fill="#B7535E"/>
<path d="M41.8789 160.898C50.406 155.483 55.501 157.818 53.5064 160.922C50.0822 166.25 41.8789 160.898 41.8789 160.898Z" fill="#B7535E"/>
<path d="M42.7411 165.515C30.2368 163.896 24.7903 167.636 29.0638 169.386C33.3372 171.136 40.7545 168.576 42.7411 165.515Z" fill="#B7535E"/>
<path d="M46.7031 171.116C50.7356 166.23 58.7019 169.062 54.6891 170.753C50.6764 172.443 51.4624 172.016 46.7031 171.116Z" fill="#B7535E"/>
<path d="M47.818 174.516C31.842 171.219 32.3515 176.547 39.3304 177.992C46.3093 179.438 47.818 174.516 47.818 174.516Z" fill="#B7535E"/>
<path d="M50.1602 178.071C54.9747 174.106 60.2829 173.264 59.9353 176.938C59.5878 180.611 54.5284 177.826 50.1602 178.071Z" fill="#B7535E"/>
<path d="M51.3328 183.028C39.6223 179.904 34.9618 184.367 39.0654 186.144C43.169 187.921 49.4607 184.892 51.3328 183.028Z" fill="#B7535E"/>
<path d="M54.8203 187.246C63.458 179.047 66.2227 183.905 64.6508 186.669C63.0789 189.434 54.8203 187.246 54.8203 187.246Z" fill="#B7535E"/>
<path d="M55.5167 190.702C47.7439 189.169 39.1813 191.579 44.0471 196.026C48.913 200.469 55.5167 190.702 55.5167 190.702Z" fill="#B7535E"/>
<path d="M58.8516 195.196C67.4814 191.29 70.6766 193.992 69.235 196.863C67.7934 199.734 58.8516 195.196 58.8516 195.196Z" fill="#B7535E"/>
<path d="M61.0374 199.604C48.7187 196.816 49.5047 204.265 53.0435 205.71C56.5823 207.156 61.0374 199.604 61.0374 199.604Z" fill="#B7535E"/>
<path d="M64.4727 204.699C70.4997 202.444 76.2582 202.949 76.5583 205.449C76.8585 207.95 71.0961 205.643 64.4727 204.699Z" fill="#B7535E"/>
<path d="M64.487 208.838C51.8761 204.92 55.6874 212.199 57.4331 213.443C59.6765 215.047 62.7532 212.697 64.487 208.838Z" fill="#B7535E"/>
<g opacity="0.3">
<path d="M121.282 253.128C121.335 253.136 121.388 253.141 121.447 253.142C122.014 253.139 122.47 252.678 122.467 252.114C122.38 227.51 139.733 203.578 158.112 178.244C178.44 150.221 199.456 121.244 200.414 87.5219C200.428 86.9573 199.985 86.4833 199.421 86.4694C198.856 86.4555 198.386 86.8982 198.368 87.4622C197.432 120.549 176.598 149.268 156.456 177.037C137.879 202.652 120.33 226.845 120.42 252.117C120.423 252.626 120.795 253.047 121.283 253.124L121.282 253.128Z" fill="#B7535E"/>
<path d="M199.564 88.4632C205.276 80.1729 207.98 68.6203 201.28 67.0188C194.58 65.4173 194.475 83.1225 199.564 88.4632Z" fill="#B7535E"/>
<path d="M199.046 93.0042C189.619 75.0891 184.251 79.0031 182.704 81.4936C181.157 83.984 187.27 94.7082 199.046 93.0042Z" fill="#B7535E"/>
<path d="M199.696 98.8369C218.229 84.7435 219.283 90.6196 218.357 95.0167C217.43 99.4178 203.441 99.9604 199.696 98.8369Z" fill="#B7535E"/>
<path d="M196.084 104.887C185.492 93.1234 180.32 94.3133 178.139 97.0665C175.959 99.8198 174.669 104.622 196.084 104.887Z" fill="#B7535E"/>
<path d="M196.477 109.533C217.568 103.445 214.68 108.917 212.512 112.468C209.04 118.152 199.46 114.438 196.477 109.533Z" fill="#B7535E"/>
<path d="M194.187 118.726C188.783 107.842 179.27 104.576 176.804 111.944C174.335 119.311 187.638 119.002 194.187 118.726Z" fill="#B7535E"/>
<path d="M190.965 124.307C199.323 121.23 210.762 121.986 207.922 129.191C205.082 136.396 190.965 124.307 190.965 124.307Z" fill="#B7535E"/>
<path d="M187.106 131.606C178.995 122.692 172.647 125.868 174.51 130.1C176.507 134.624 183.262 131.404 187.106 131.606Z" fill="#B7535E"/>
<path d="M184.695 138.153C194.664 136.864 203.603 135.338 201.219 141.423C198.835 147.508 187.047 139.895 184.695 138.153Z" fill="#B7535E"/>
<path d="M180.017 144.376C172.157 135.723 165.249 137.298 168.581 142.312C172.165 147.711 180.017 144.376 180.017 144.376Z" fill="#B7535E"/>
<path d="M178.901 148.731C189.89 149.166 198.68 150.676 193.059 153.787C187.438 156.899 182.958 152.792 178.901 148.731Z" fill="#B7535E"/>
<path d="M174.287 153.435C166.384 146.475 160.759 148.052 162.31 151.573C164.971 157.614 174.287 153.435 174.287 153.435Z" fill="#B7535E"/>
<path d="M172.648 158.048C185.786 158.41 190.788 163.145 186.103 164.253C181.419 165.361 174.197 161.523 172.648 158.048Z" fill="#B7535E"/>
<path d="M167.659 163.172C164.299 157.487 155.637 159.111 159.495 161.502C163.352 163.894 162.612 163.327 167.659 163.172Z" fill="#B7535E"/>
<path d="M165.956 166.493C182.942 165.689 181.553 171.093 174.132 171.449C166.711 171.805 165.956 166.493 165.956 166.493Z" fill="#B7535E"/>
<path d="M162.971 169.774C158.657 164.909 153.327 163.182 153.089 167.02C152.851 170.859 158.512 168.813 162.971 169.774Z" fill="#B7535E"/>
<path d="M160.959 174.688C173.524 173.37 177.599 178.722 173.085 179.887C168.571 181.051 162.584 176.911 160.959 174.688Z" fill="#B7535E"/>
<path d="M156.685 178.465C149.12 168.621 145.485 173.174 146.656 176.276C147.826 179.378 156.685 178.465 156.685 178.465Z" fill="#B7535E"/>
<path d="M155.404 181.911C163.657 181.594 172.083 185.464 166.351 189.254C160.62 193.04 155.404 181.911 155.404 181.911Z" fill="#B7535E"/>
<path d="M151.246 185.998C142.994 180.576 139.265 182.84 140.284 186.03C141.302 189.221 151.246 185.998 151.246 185.998Z" fill="#B7535E"/>
<path d="M148.276 190.182C161.413 189.309 159.395 196.852 155.517 197.766C151.638 198.68 148.276 190.182 148.276 190.182Z" fill="#B7535E"/>
<path d="M143.915 194.871C138.075 191.571 132.063 191.157 131.348 193.683C130.634 196.209 136.942 194.768 143.915 194.871Z" fill="#B7535E"/>
<path d="M143.228 199.131C156.849 197.143 151.744 204.02 149.744 205.018C147.174 206.305 144.387 203.386 143.228 199.131Z" fill="#B7535E"/>
</g>
<path d="M131.716 299.033C131.469 299.001 131.254 298.818 131.196 298.56C126.615 278.659 128.886 260.486 138.139 243.007C146.266 227.656 158.49 214.919 170.309 202.603C188.775 183.364 206.212 165.196 202.205 141.267C202.149 140.933 202.376 140.616 202.71 140.559C203.044 140.503 203.361 140.731 203.418 141.064C207.53 165.6 189.882 183.988 171.199 203.454C159.436 215.709 147.272 228.383 139.228 243.581C130.117 260.791 127.883 278.682 132.393 298.288C132.471 298.616 132.265 298.948 131.932 299.025C131.858 299.043 131.786 299.046 131.716 299.037L131.716 299.033Z" fill="#B7535E"/>
<path d="M202.234 141.012C199.723 128.719 204.942 126.841 206.398 130.202C207.854 133.562 208.824 135.805 202.234 141.012Z" fill="#B7535E"/>
<path d="M203.362 146.253C198.347 137.363 191.597 136.751 190.582 141.773C189.566 146.795 202.016 147.399 203.362 146.253Z" fill="#B7535E"/>
<path d="M203.845 148.008C207.398 138.262 210.847 137.885 211.561 140.883C212.275 143.882 210.934 147.413 203.845 148.008Z" fill="#B7535E"/>
<path d="M202.593 156.404C194.875 149.182 192.083 148.72 190.161 153.088C188.238 157.456 199.129 159.778 202.593 156.404Z" fill="#B7535E"/>
<path d="M200.473 163.654C209.596 159.589 212.665 167.103 209.856 168.729C207.046 170.356 203.127 167.296 200.473 163.654Z" fill="#B7535E"/>
<path d="M196.666 171.368C195.722 164.637 186.67 158.875 185.615 166.477C184.559 174.078 194.522 171.443 196.666 171.368Z" fill="#B7535E"/>
<path d="M194.179 175.695C207.712 176.796 207.765 184.695 202.109 183.618C196.457 182.542 196.052 178.381 194.179 175.695Z" fill="#B7535E"/>
<path d="M189.146 181.783C184.743 173.803 179.983 170.592 178.31 175.653C176.636 180.714 184.724 181.144 189.146 181.783Z" fill="#B7535E"/>
<path d="M185.778 186.75C200.059 188.047 199.87 197.177 195.346 195.967C190.823 194.757 188.304 193.717 185.778 186.75Z" fill="#B7535E"/>
<path d="M181.278 191.866C178.86 185.738 173.203 181.85 170.728 185.458C168.254 189.067 176.967 191.233 181.278 191.866Z" fill="#B7535E"/>
<path d="M175.755 197.329C184.667 197.976 194.799 207.269 186.767 208.476C178.736 209.682 178.238 201.34 175.755 197.329Z" fill="#B7535E"/>
<path d="M171.095 202.68C168.939 195.407 162.834 192.373 161.397 196.959C159.96 201.545 167.434 203.002 171.095 202.68Z" fill="#B7535E"/>
<path d="M166.082 207.913C179.023 209.432 179.31 220.097 175.816 220.241C172.321 220.386 166.943 212.555 166.082 207.913Z" fill="#B7535E"/>
<path d="M162.461 211.761C160.318 204.23 151.855 201.543 150.671 207.599C149.488 213.655 162.461 211.761 162.461 211.761Z" fill="#B7535E"/>
<path d="M156.34 218.529C171.552 222.457 171.271 234.045 165.676 232.339C160.082 230.633 156.373 225.095 156.34 218.529Z" fill="#B7535E"/>
<path d="M151.609 224.145C147.993 218.874 141.23 214.669 138.957 220.772C136.68 226.875 149.395 224.948 151.609 224.145Z" fill="#B7535E"/>
<path d="M146.563 230.732C158.813 231.369 168.046 247.225 158.1 246.194C142.007 244.53 146.563 230.732 146.563 230.732Z" fill="#B7535E"/>
<path d="M140.964 239.228C134.286 227.316 121.955 232.24 127.153 239.887C132.351 247.535 140.964 239.228 140.964 239.228Z" fill="#B7535E"/>
<path d="M136.709 246.57C149.043 244.88 156.676 248.6 151.016 254.663C145.355 260.729 139.231 252.078 136.709 246.57Z" fill="#B7535E"/>
<path d="M133.186 255.646C120.151 244.284 118.821 250.886 120.715 253.909C122.608 256.932 130.604 257.118 133.186 255.646Z" fill="#B7535E"/>
<path d="M130.713 264.922C140.044 260.82 144.351 268.122 142.003 269.657C139.656 271.191 135.457 269.318 130.713 264.922Z" fill="#B7535E"/>
<path d="M129.448 269.661C117.933 259.891 114.88 267.288 118.349 270.481C121.817 273.674 125.403 270.957 129.448 269.661Z" fill="#B7535E"/>
<g opacity="0.3">
<path d="M156.322 294.781C156.152 294.73 156.026 294.576 156.018 294.39C155.208 280.01 158.952 267.648 167.472 256.597C174.952 246.893 184.968 239.499 194.657 232.346C209.787 221.173 224.077 210.624 224.144 193.51C224.144 193.269 224.338 193.08 224.578 193.08C224.819 193.08 225.009 193.273 225.009 193.514C224.942 211.062 210.482 221.738 195.17 233.045C185.533 240.163 175.564 247.521 168.159 257.13C159.774 268.007 156.085 280.18 156.887 294.347C156.899 294.584 156.717 294.789 156.48 294.805C156.429 294.805 156.377 294.805 156.33 294.785L156.322 294.781Z" fill="white"/>
<path d="M224.19 193.336C223.91 184.493 227.761 183.806 228.373 186.318C228.985 188.83 229.392 190.505 224.19 193.336Z" fill="white"/>
<path d="M224.347 197.116C221.922 190.339 217.301 189.106 215.998 192.479C214.694 195.848 223.277 197.756 224.347 197.116Z" fill="white"/>
<path d="M224.473 198.392C228.106 192.041 230.547 192.191 230.685 194.359C230.824 196.528 229.473 198.822 224.473 198.392Z" fill="white"/>
<path d="M222.596 204.079C218.094 198.139 216.206 197.484 214.349 200.292C212.493 203.1 219.784 206.011 222.596 204.079Z" fill="white"/>
<path d="M220.262 208.866C227.087 207.128 228.327 212.717 226.178 213.515C224.03 214.313 221.672 211.718 220.262 208.866Z" fill="white"/>
<path d="M216.697 213.775C216.843 208.981 211.238 203.898 209.599 209.06C207.96 214.218 215.2 213.574 216.697 213.775Z" fill="white"/>
<path d="M214.453 216.489C223.731 218.866 222.822 224.364 219.023 222.942C215.223 221.521 215.437 218.578 214.453 216.489Z" fill="white"/>
<path d="M210.23 220.118C208.12 214.048 205.194 211.244 203.428 214.565C201.663 217.883 207.232 219.147 210.23 220.118Z" fill="white"/>
<path d="M207.301 223.171C217.076 225.774 215.856 232.101 212.85 230.719C209.844 229.337 208.225 228.314 207.301 223.171Z" fill="white"/>
<path d="M203.559 226.189C202.611 221.639 199.139 218.262 196.99 220.474C194.842 222.686 200.64 225.233 203.559 226.189Z" fill="white"/>
<path d="M199.066 229.333C205.184 230.845 211.12 238.512 205.394 238.393C199.667 238.275 200.314 232.417 199.066 229.333Z" fill="white"/>
<path d="M195.184 232.492C194.552 227.18 190.669 224.345 189.125 227.358C187.581 230.372 192.601 232.279 195.184 232.492Z" fill="white"/>
<path d="M191.078 235.534C199.894 238.132 198.823 245.577 196.375 245.265C193.926 244.953 191.126 238.867 191.078 235.534Z" fill="white"/>
<path d="M188.102 237.777C187.51 232.287 181.949 229.408 180.401 233.48C178.856 237.548 188.102 237.777 188.102 237.777Z" fill="white"/>
<path d="M183.039 241.75C193.146 246.296 191.57 254.318 187.885 252.465C184.2 250.613 182.28 246.32 183.039 241.75Z" fill="white"/>
<path d="M179.076 245.092C177.192 240.996 172.994 237.267 170.683 241.237C168.373 245.206 177.441 245.384 179.076 245.092Z" fill="white"/>
<path d="M174.787 249.069C183.227 250.972 187.757 263.094 180.964 261.194C169.976 258.117 174.787 249.069 174.787 249.069Z" fill="white"/>
<path d="M169.887 254.306C166.664 245.23 157.505 247.181 160.207 253.117C162.908 259.053 169.887 254.306 169.887 254.306Z" fill="white"/>
<path d="M166.055 258.903C174.831 259.199 179.693 262.695 175.036 266.237C170.379 269.78 167.153 263.034 166.055 258.903Z" fill="white"/>
<path d="M162.518 264.792C154.809 255.341 153.099 259.768 154.058 262.098C155.018 264.429 160.552 265.511 162.518 264.792Z" fill="white"/>
<path d="M159.695 270.945C166.67 269.208 168.795 274.796 166.978 275.582C165.162 276.368 162.468 274.563 159.695 270.945Z" fill="white"/>
<path d="M158.249 274.089C151.408 265.926 148.403 270.701 150.433 273.335C152.463 275.969 155.279 274.508 158.249 274.089Z" fill="white"/>
</g>
<path d="M220.702 303.263C207.941 285.944 209.765 257.689 209.272 225.318C209.272 189.357 159.128 184.152 139.558 166.88L89.3905 165.66C49.2234 165.525 28.4645 167.07 16.5487 182.694C4.63284 198.319 -24.7677 262.479 -23.5118 294.668C-22.2558 326.857 86.9299 306.825 112.879 303.263H220.702Z" fill="#F6DADA"/>
<path d="M138.08 166.884C144.601 176.134 134.909 210.776 117.906 210.456C100.903 210.14 82.7904 176.932 102.333 162.153C121.875 147.377 138.076 166.884 138.076 166.884H138.08Z" stroke="white" stroke-width="0.9" stroke-miterlimit="10"/>
<path d="M142.022 138.198L136.548 182.153C124.683 219.864 101.878 207.355 96.8467 175.348C91.815 143.337 89.0938 135.639 89.0938 135.639L142.022 138.194V138.198Z" fill="#D9925B"/>
<mask id="mask1_7186_32545" style="mask-type:luminance" maskUnits="userSpaceOnUse" x="89" y="135" width="54" height="71">
<path d="M142.018 138.198L136.544 182.153C124.679 219.863 101.875 207.355 96.8428 175.348C91.8111 143.337 89.0898 135.639 89.0898 135.639L142.018 138.194V138.198Z" fill="white"/>
</mask>
<g mask="url(#mask1_7186_32545)">
<path d="M80.5547 148.554C103.269 160.968 118.692 162.725 142.014 150.039L143.297 131.508H80.5547V148.554Z" fill="#B1632F"/>
</g>
<path d="M112.879 10.2522C113.266 10.2522 113.653 10.2601 114.04 10.268C114.427 10.2601 114.814 10.2522 115.201 10.2522H112.883H112.879ZM114.04 10.268C83.1346 10.9118 55.1756 37.2277 55.1756 81.8539C55.1756 113.194 43.3704 138.89 37.683 159.317C31.9956 179.744 54.7491 189.985 51.3327 203.066L59.4965 201.861C59.7532 199.788 59.7137 197.414 59.1963 195.574C60.7208 196.932 61.6529 199.27 62.2217 201.459L107.436 194.792C110.395 171.722 88.4942 167.232 91.8118 143.341C91.8118 143.341 131.92 141.062 142.023 138.198C152.126 135.339 171.64 115.319 172.896 81.8539C174.571 37.2593 144.981 10.9118 114.036 10.268H114.04Z" fill="#EEB4B7"/>
<mask id="mask2_7186_32545" style="mask-type:luminance" maskUnits="userSpaceOnUse" x="36" y="10" width="137" height="194">
<path d="M112.879 10.252C113.266 10.252 113.653 10.2599 114.04 10.2678C114.427 10.2599 114.814 10.252 115.201 10.252H112.883H112.879ZM114.04 10.2678C83.1346 10.9116 55.1756 37.2276 55.1756 81.8537C55.1756 113.194 43.3704 138.889 37.683 159.317C31.9956 179.744 54.7491 189.985 51.3327 203.066L59.4965 201.861C59.7532 199.788 59.7137 197.414 59.1963 195.574C60.7208 196.932 61.6529 199.27 62.2217 201.458L107.436 194.792C110.395 171.722 88.4942 167.231 91.8118 143.341C91.8118 143.341 131.92 141.062 142.023 138.198C152.126 135.339 171.64 115.318 172.896 81.8537C174.571 37.2592 144.981 10.9116 114.036 10.2678H114.04Z" fill="white"/>
</mask>
<g mask="url(#mask2_7186_32545)">
<path d="M69.957 104.832C60.952 148.041 84.6967 156.019 87.5444 178.433" stroke="#DC696F" stroke-width="1.12" stroke-miterlimit="10" stroke-linecap="round"/>
<path d="M120.707 -0.988388C129.68 38.3572 148.129 58.6027 182.767 75.0447" stroke="#DC696F" stroke-width="1.12" stroke-miterlimit="10" stroke-linecap="round"/>
<path d="M128.691 2.30957C131.871 28.3688 160.15 60.463 177.63 68.4095" stroke="#DC696F" stroke-width="1.12" stroke-miterlimit="10" stroke-linecap="round"/>
<path d="M137.324 13.3131C148.766 37.7806 162.748 52.4019 175.777 61.6162" stroke="#DC696F" stroke-width="1.12" stroke-miterlimit="10" stroke-linecap="round"/>
<path d="M64.5547 139.565C65.8659 157.587 88.0704 172.52 82.0315 210.973" stroke="#DC696F" stroke-width="1.12" stroke-miterlimit="10" stroke-linecap="round"/>
<path d="M92.0332 41.5958C92.0332 71.2176 38.9511 117.42 65.6027 163.499" stroke="#DC696F" stroke-width="1.12" stroke-miterlimit="10" stroke-linecap="round"/>
</g>
<path d="M161.608 126.607C156.363 126.607 152.094 120.698 152.094 113.439C152.094 106.179 156.363 100.271 161.608 100.271C166.853 100.271 171.123 106.179 171.123 113.439C171.123 120.698 166.853 126.607 161.608 126.607ZM161.608 102.404C157.54 102.404 154.227 107.352 154.227 113.439C154.227 119.525 157.536 124.474 161.608 124.474C165.68 124.474 168.99 119.525 168.99 113.439C168.99 107.352 165.68 102.404 161.608 102.404Z" fill="#FFCC40"/>
<path d="M163.476 70.4753C143.795 56.7545 129.379 39.9649 120.828 25.1856C120.789 25.1817 120.749 25.1777 120.71 25.1738C120.67 51.2211 83.0941 87.7783 78.0742 130.718C87.3636 147.535 100.942 159.321 115.2 159.321C140.979 159.321 164.534 120.816 164.534 83.6787C164.534 79.034 164.167 74.6302 163.472 70.4792L163.476 70.4753Z" fill="#D9925B"/>
<path d="M97.9781 63.6702C87.9778 81.226 77.4996 97.9445 72.1953 117.87C72.8667 119.667 73.5816 121.429 74.3439 123.155C78.7476 101.258 89.0363 81.2536 97.982 63.6662L97.9781 63.6702Z" fill="#BC794C"/>
<path d="M116.422 110.002C115.96 110.002 115.533 109.694 115.403 109.228C115.245 108.664 115.573 108.079 116.138 107.921L124.001 105.721C124.649 105.539 125.182 105.117 125.502 104.532C125.826 103.948 125.897 103.272 125.703 102.633C124.037 97.0716 121.047 85.5705 119.728 71.0124C119.676 70.4278 120.103 69.9144 120.687 69.863C121.28 69.8078 121.785 70.2383 121.837 70.8228C123.136 85.1953 126.087 96.5424 127.73 102.028C128.085 103.217 127.951 104.473 127.354 105.559C126.754 106.649 125.767 107.431 124.566 107.767L116.702 109.967C116.608 109.995 116.509 110.006 116.418 110.006L116.422 110.002Z" fill="#9F5E31"/>
<path d="M142.027 72.7858C137.699 70.9967 137.983 79.1723 140.456 80.4085C142.928 81.6447 147.513 75.0529 142.027 72.7858Z" fill="#1D1A1A"/>
<path d="M99.9723 75.1318C95.4382 74.1009 96.6389 82.3121 98.582 83.3192C100.525 84.3264 106.26 76.5615 99.9723 75.1318Z" fill="#1D1A1A"/>
<path d="M138.668 57.801C145.769 56.1067 149.952 59.8982 149.952 59.8982" stroke="#DC696F" stroke-width="3.22" stroke-linecap="round" stroke-linejoin="round"/>
<path d="M110.396 58.6305C101.711 54.6217 95.9922 59.8983 95.9922 59.8983" stroke="#DC696F" stroke-width="3.22" stroke-linecap="round" stroke-linejoin="round"/>
<path d="M105.363 128.664C116.406 137.894 134.452 142.772 130.775 133.092C128.99 128.392 120.052 132.495 105.363 128.664Z" fill="#933F36"/>
<path d="M107.723 129.221C112.284 131.607 133.719 133.803 133.138 129.067C132.558 124.332 113.987 129.276 107.723 129.221Z" fill="#A45651"/>
<path opacity="0.2" d="M164.281 79.6027C164.281 91.7437 156.232 101.511 146.303 101.412C134.647 101.333 128.324 91.3922 128.324 79.2512C128.324 67.1102 135.315 57.3627 146.303 57.4417C156.232 57.5128 164.281 67.4617 164.281 79.6027Z" fill="white"/>
<path d="M147.468 101.337C156.896 101.337 164.538 91.4932 164.538 79.35C164.538 67.2067 156.896 57.3627 147.468 57.3627C138.041 57.3627 130.398 67.2067 130.398 79.35C130.398 91.4932 138.041 101.337 147.468 101.337Z" stroke="#FFD652" stroke-width="0.9" stroke-miterlimit="10"/>
<path d="M113.492 83.414C116.798 83.73 118.512 75.8269 123.836 76.5457C129.16 77.2646 128.71 84.9583 130.961 84.9781" stroke="#FFD652" stroke-width="0.9" stroke-miterlimit="10"/>
<path d="M164.527 78.7141C165.207 78.7141 165.756 78.5601 166.155 78.3863C166.395 78.2836 166.585 78.169 166.719 78.0822C166.877 77.9755 166.956 77.9005 166.956 77.9005" stroke="#FFD652" stroke-width="0.9" stroke-miterlimit="10" stroke-linecap="round"/>
<path d="M166.663 78.0308C166.584 76.9684 165.182 77.4423 165.853 78.3428C166.509 78.2915 166.663 78.0308 166.663 78.0308Z" fill="#FFD652"/>
<path opacity="0.3" d="M155.77 70.3054L143.598 93.1536" stroke="white" stroke-width="3.6" stroke-miterlimit="10" stroke-linecap="round"/>
<path opacity="0.3" d="M157.327 77.8807L149.949 91.4356" stroke="white" stroke-width="3.6" stroke-miterlimit="10" stroke-linecap="round"/>
<path opacity="0.3" d="M109.694 77.8807L102.32 91.4356" stroke="white" stroke-width="3.6" stroke-miterlimit="10" stroke-linecap="round"/>
<mask id="mask3_7186_32545" style="mask-type:luminance" maskUnits="userSpaceOnUse" x="78" y="25" width="87" height="135">
<path d="M163.48 70.4753C143.799 56.7545 129.383 39.9649 120.832 25.1856C120.793 25.1816 120.753 25.1777 120.714 25.1737C120.674 51.2211 83.098 87.7783 78.0781 130.718C87.3675 147.535 100.946 159.321 115.204 159.321C140.983 159.321 164.538 120.816 164.538 83.6786C164.538 79.034 164.171 74.6302 163.476 70.4792L163.48 70.4753Z" fill="white"/>
</mask>
<g mask="url(#mask3_7186_32545)">
<path opacity="0.2" d="M113.762 79.6027C113.762 91.7437 105.712 101.511 95.7831 101.412C84.1279 101.333 77.8047 91.3921 77.8047 79.2512C77.8047 67.1102 84.7954 57.3627 95.7831 57.4417C105.712 57.5128 113.762 67.4617 113.762 79.6027Z" fill="white"/>
<path d="M96.9411 101.337C106.369 101.337 114.011 91.4931 114.011 79.3499C114.011 67.2067 106.369 57.3627 96.9411 57.3627C87.5136 57.3627 79.8711 67.2067 79.8711 79.3499C79.8711 91.4931 87.5136 101.337 96.9411 101.337Z" stroke="#FFD652" stroke-width="0.9" stroke-miterlimit="10"/>
</g>
<mask id="mask4_7186_32545" style="mask-type:luminance" maskUnits="userSpaceOnUse" x="72" y="63" width="26" height="61">
<path d="M97.9742 63.6701C87.9739 81.226 77.4957 97.9445 72.1914 117.87C72.8628 119.667 73.5777 121.429 74.34 123.155C78.7437 101.258 89.0324 81.2536 97.9781 63.6662L97.9742 63.6701Z" fill="white"/>
</mask>
<g mask="url(#mask4_7186_32545)">
<path opacity="0.2" d="M113.847 79.6027C113.847 91.7437 105.798 101.511 95.8691 101.412C84.2139 101.333 77.8906 91.3922 77.8906 79.2512C77.8906 67.1103 84.8814 57.3627 95.8691 57.4417C105.798 57.5128 113.847 67.4618 113.847 79.6027Z" fill="white"/>
<path d="M97.0271 101.337C106.455 101.337 114.097 91.4932 114.097 79.3499C114.097 67.2067 106.455 57.3627 97.0271 57.3627C87.5995 57.3627 79.957 67.2067 79.957 79.3499C79.957 91.4932 87.5995 101.337 97.0271 101.337Z" stroke="#FFD652" stroke-width="0.9" stroke-miterlimit="10"/>
</g>
<path d="M165.676 106.669C148.286 146.094 150.98 151.204 154.234 160.743C145.131 149.51 153.618 128.246 165.676 106.669Z" fill="#EEB4B7"/>
<path d="M33.4871 269.502H16.1445L33.4871 265.027V269.502Z" fill="#E2C7C7"/>
<path d="M40.2379 236.329L31.7227 269.502H41.3319L40.2379 236.329Z" fill="#E2C7C7"/>
<path d="M108.996 274.498C130.648 272.132 138.495 281.098 151.138 303.263H120.671C120.671 303.263 117.91 300.715 118.104 292.555L111.39 291.584L108.996 274.498Z" fill="#D9925B"/>
<path d="M93.8687 306.098L112.882 303.263L109.699 269.502H89.1016L93.8687 306.098Z" fill="#EEB4B7"/>
</g>
</svg>
