<?xml version="1.0" encoding="UTF-8"?>
<svg version="1.1" xmlns="http://www.w3.org/2000/svg" width="500" height="500">
<path d="M0 0 C165 0 330 0 500 0 C500 165 500 330 500 500 C335 500 170 500 0 500 C0 335 0 170 0 0 Z " fill="#FEFEFE" transform="translate(0,0)"/>
<path d="M0 0 C4.97859691 2.1022866 8.11650129 5.1139381 10.90234375 9.7265625 C13.22739457 15.58161749 13.02686045 21.89670539 11.234375 27.890625 C9.30840405 32.13885722 6.89938292 34.80405722 2.97265625 37.421875 C3.93593274 39.85277608 4.52362611 41.15955438 6.81689453 42.49926758 C7.55149902 42.76892334 8.28610352 43.0385791 9.04296875 43.31640625 C9.85386963 43.62868164 10.66477051 43.94095703 11.50024414 44.26269531 C12.35739014 44.58334961 13.21453613 44.90400391 14.09765625 45.234375 C21.52537283 48.17859528 28.57371773 50.97814033 32.98071289 58.03637695 C34.35671606 61.34549015 34.70062043 64.70119025 35.12109375 68.23046875 C35.32401729 69.7988542 35.52714933 71.36721269 35.73046875 72.93554688 C36.03913839 75.38323873 36.34421289 77.83129858 36.64453125 80.2800293 C38.20922549 92.91725141 40.16733524 105.11847622 46.41015625 116.421875 C46.96574219 117.453125 47.52132812 118.484375 48.09375 119.546875 C50.08731455 122.59731889 52.31430717 124.94135717 54.97265625 127.421875 C55.62492188 126.87917969 56.2771875 126.33648437 56.94921875 125.77734375 C57.82320312 125.06191406 58.6971875 124.34648437 59.59765625 123.609375 C60.45617187 122.90167969 61.3146875 122.19398438 62.19921875 121.46484375 C65.00821603 119.39568096 67.8144461 117.88984071 70.97265625 116.421875 C69.66941406 115.95007813 69.66941406 115.95007813 68.33984375 115.46875 C58.28770936 111.7357426 50.31503931 107.89646879 44.78125 98.37109375 C43.68840925 95.73666122 44.17382033 94.10886856 44.97265625 91.421875 C45.97265625 90.421875 45.97265625 90.421875 49.53515625 90.359375 C50.66953125 90.38 51.80390625 90.400625 52.97265625 90.421875 C52.80765625 89.32875 52.64265625 88.235625 52.47265625 87.109375 C51.80643513 81.88282341 51.88564082 76.6814742 51.97265625 71.421875 C53.6953125 70.26953125 53.6953125 70.26953125 55.97265625 69.421875 C58.09375 70.29296875 58.09375 70.29296875 60.41015625 71.859375 C64.39776185 74.45485794 68.41571423 76.70781453 72.66015625 78.859375 C81.05711714 83.36409755 86.52671752 88.43649713 89.97265625 97.421875 C95.62134797 116.78585946 89.16802692 139.32379896 79.97265625 156.421875 C77.28453171 160.99642299 74.23029818 165.23263056 70.97265625 169.421875 C70.39902344 170.16695312 69.82539063 170.91203125 69.234375 171.6796875 C58.70087884 184.50088808 44.27601875 193.25119835 28.81640625 198.75634766 C27.13631918 199.36279858 25.4749837 200.02057331 23.81640625 200.68359375 C5.15054183 207.2674692 -20.00876256 205.1642588 -37.90625 196.98046875 C-38.93621094 196.46613281 -39.96617187 195.95179688 -41.02734375 195.421875 C-41.64077637 195.12039551 -42.25420898 194.81891602 -42.88623047 194.50830078 C-53.45052813 189.23526584 -61.8041449 182.86544166 -70.02734375 174.421875 C-70.72472656 173.7103125 -71.42210937 172.99875 -72.140625 172.265625 C-89.91498569 153.03305733 -95.89684204 127.8329624 -95.02734375 102.421875 C-94.33512618 89.57813305 -92.72944578 76.99565645 -90.02734375 64.421875 C-88.25 63.7265625 -88.25 63.7265625 -86.02734375 63.421875 C-81.73772717 66.39231917 -78.39972223 70.81666972 -76.02734375 75.421875 C-75.36734375 74.431875 -74.70734375 73.441875 -74.02734375 72.421875 C-73.36734375 71.431875 -72.70734375 70.441875 -72.02734375 69.421875 C-71.03734375 69.421875 -70.04734375 69.421875 -69.02734375 69.421875 C-68.21059579 71.16989646 -67.39910924 72.92037689 -66.58984375 74.671875 C-66.13738281 75.64640625 -65.68492187 76.6209375 -65.21875 77.625 C-62.19695246 84.71879357 -61.61271818 92.39636331 -64.19140625 99.734375 C-67.26263923 106.16033939 -70.10594734 110.63942209 -76.77734375 113.671875 C-80.97917228 114.64152774 -84.71857925 114.55244362 -89.02734375 114.421875 C-89.02734375 118.711875 -89.02734375 123.001875 -89.02734375 127.421875 C-86.05734375 126.926875 -86.05734375 126.926875 -83.02734375 126.421875 C-80.82080078 126.48291016 -80.82080078 126.48291016 -78.78515625 126.7109375 C-70.04736179 127.61670411 -70.04736179 127.61670411 -62.25 124.3984375 C-60.09165315 121.5068327 -58.53487645 118.69824607 -57.02734375 115.421875 C-56.55425781 114.48472656 -56.08117187 113.54757812 -55.59375 112.58203125 C-49.51128641 99.42441713 -46.54005168 84.05274345 -45.65234375 69.671875 C-45.0673782 62.89602406 -42.93797261 57.93320658 -37.96484375 53.234375 C-32.6851919 49.07157258 -26.40020374 46.65540409 -20.1328125 44.36328125 C-18.78123047 43.86634766 -18.78123047 43.86634766 -17.40234375 43.359375 C-16.58507812 43.07964844 -15.7678125 42.79992187 -14.92578125 42.51171875 C-12.8259944 41.57729606 -12.8259944 41.57729606 -12.25390625 39.30078125 C-12.17914063 38.68074219 -12.104375 38.06070313 -12.02734375 37.421875 C-12.93484375 36.761875 -13.84234375 36.101875 -14.77734375 35.421875 C-19.02970934 31.83457133 -21.38851263 27.72946791 -22.4453125 22.2578125 C-22.86461533 15.84361252 -20.56310838 10.68419482 -17.02734375 5.421875 C-12.0758244 0.13137633 -7.25847727 -2.06985479 0 0 Z " fill="#A37E62" transform="translate(252.02734375,158.578125)"/>
<path d="M0 0 C5.97242416 2.55961035 12.97710724 3.27555136 19.2421875 1.2890625 C19.90476562 1.00804687 20.56734375 0.72703125 21.25 0.4375 C25.24162363 -1.24659273 27.74559719 -1.26885698 32 0 C37.87472921 3.07723911 41.63698488 6.20484217 45 12 C45.74194336 15.45654297 45.74194336 15.45654297 46.08984375 19.2421875 C46.23286622 20.64520338 46.37610308 22.04819741 46.51953125 23.45117188 C46.62128662 24.53676392 46.62128662 24.53676392 46.72509766 25.64428711 C47.88907564 37.86873174 49.27793419 49.55979008 54 61 C54.39832031 61.969375 54.79664063 62.93875 55.20703125 63.9375 C56.08837513 65.9804738 57.03369564 67.99581317 58 70 C53.18559869 68.76840897 49.76103611 67.17695207 47 63 C40.66287091 49.86204945 37.67482478 35.59002798 36.85864258 21.11865234 C36.70997863 18.532023 36.70997863 18.532023 36 15 C34.0283737 13.72648569 34.0283737 13.72648569 32 13 C33.97198165 33.30145439 33.97198165 33.30145439 39 53 C39.71223282 55.65794146 40.35779582 58.32414926 41 61 C35.2412066 62.94663439 30.11142761 64.63660704 24 64 C23.01 63.01 23.01 63.01 22 62 C23.30208333 60.53515625 24.60416667 59.0703125 25.90625 57.60546875 C27.28151241 55.910552 27.28151241 55.910552 27 53 C26.01 53 25.02 53 24 53 C22.63592781 54.41382192 22.63592781 54.41382192 21.375 56.25 C17.89148515 60.46958924 14.30563726 62.64484497 9 64 C5.3031782 64.29135159 1.6977137 64.24881812 -2 64 C-2 61 -2 61 -0.609375 59.34375 C0.00421875 58.7353125 0.6178125 58.126875 1.25 57.5 C6.22301028 52.02262762 9.20456863 45.29353302 9.25 37.8125 C9.1675 36.884375 9.085 35.95625 9 35 C8.01 35.33 7.02 35.66 6 36 C5.18554113 38.52959521 5.18554113 38.52959521 4.6875 41.5625 C3.30366445 47.63119549 1.23615185 51.49323403 -3 56 C-3.45246094 56.52722656 -3.90492188 57.05445313 -4.37109375 57.59765625 C-6.49965911 59.76240119 -8.36725041 60.92969449 -11.390625 61.265625 C-13.07404708 61.25554463 -14.75821731 61.19653596 -16.4375 61.078125 C-19.4028273 60.98771868 -22.09285545 61.44223389 -25 62 C-24.79842285 61.42145264 -24.5968457 60.84290527 -24.38916016 60.24682617 C-18.87399424 44.32697187 -15.61952581 30.84655147 -16 14 C-16.99 14 -17.98 14 -19 14 C-19.02578125 15.0415625 -19.0515625 16.083125 -19.078125 17.15625 C-19.57999263 31.37583277 -21.35713635 52.41865002 -31.5625 63.1875 C-33.67576873 64.75890495 -35.64102745 65.86789267 -38 67 C-37.68546875 66.36835938 -37.3709375 65.73671875 -37.046875 65.0859375 C-29.85556976 50.05351029 -26.66181207 33.75213414 -25.5625 17.1875 C-25.04759348 11.48392013 -22.35596546 8.35596546 -18.375 4.375 C-12.76571348 -0.00680906 -6.70516227 -3.32478195 0 0 Z " fill="#FDFCFC" transform="translate(237,210)"/>
<path d="M0 0 C12.3508567 5.9794802 23.99729407 10.03902441 37.8125 7.6875 C38.8025 8.1825 38.8025 8.1825 39.8125 8.6875 C39.23489677 12.22336843 37.9852933 13.89708289 35.4375 16.375 C34.83164062 16.97699219 34.22578125 17.57898438 33.6015625 18.19921875 C31.8125 19.6875 31.8125 19.6875 28.8125 20.6875 C26.03515625 19.5078125 26.03515625 19.5078125 22.875 17.8125 C13.34171082 12.7328044 2.26338204 12.05761955 -8.3125 14.37109375 C-17.85451737 17.96425967 -26.72615481 25.12217565 -31.51171875 34.19921875 C-32.47089591 36.34306383 -33.36745931 38.48714237 -34.1875 40.6875 C-39.71427733 40.88142201 -43.94364911 40.4354503 -49.1875 38.6875 C-49.35232058 26.93814731 -44.12453614 16.92473244 -36.125 8.4609375 C-24.88351623 -1.82864644 -14.3342459 -7.27313428 0 0 Z " fill="#FDFCFB" transform="translate(277.1875,316.3125)"/>
<path d="M0 0 C8.45339674 5.18046641 15.44432879 10.60575145 19.2890625 20.015625 C20.04909387 23.19444232 19.912067 24.67405541 19.2890625 28.015625 C16.75452593 31.23517145 15.17608945 32.71994935 11.2890625 34.015625 C-5.81960455 34.82742415 -23.5737208 24.75846706 -37.8359375 16.203125 C-39.01881348 15.50110962 -39.01881348 15.50110962 -40.22558594 14.78491211 C-41.30501465 14.11600952 -41.30501465 14.11600952 -42.40625 13.43359375 C-43.3655542 12.84227661 -43.3655542 12.84227661 -44.34423828 12.23901367 C-44.79524902 11.83529541 -45.24625977 11.43157715 -45.7109375 11.015625 C-45.7109375 10.025625 -45.7109375 9.035625 -45.7109375 8.015625 C-42.34210338 5.17317121 -39.41817811 4.59726023 -35.0546875 4.80078125 C-21.61037886 6.03317621 -8.76799126 9.53530455 1.5546875 18.59765625 C3.34288298 20.23114925 3.34288298 20.23114925 6.2890625 21.015625 C4.8854107 15.71294042 1.71505754 12.95591696 -2.7109375 10.015625 C-11.51661992 5.37823365 -21.07862374 3.20367597 -30.7109375 1.015625 C-27.906421 -1.2279882 -25.20694672 -2.8380278 -21.8984375 -4.234375 C-21.08761719 -4.59015625 -20.27679688 -4.9459375 -19.44140625 -5.3125 C-12.0578181 -7.12934859 -6.23660988 -3.52691041 0 0 Z " fill="#FCFBFA" transform="translate(297.7109375,286.984375)"/>
<path d="M0 0 C2.58911726 1.18624894 4.93761606 2.41413854 7.31640625 3.97265625 C8.00476563 4.41867187 8.693125 4.8646875 9.40234375 5.32421875 C9.91023438 5.66195313 10.418125 5.9996875 10.94140625 6.34765625 C8.11705886 7.87241782 5.48846021 8.77185552 2.37890625 9.53515625 C-5.2977343 11.76422521 -12.83042441 16.23191398 -18.05859375 22.34765625 C-18.05859375 23.33765625 -18.05859375 24.32765625 -18.05859375 25.34765625 C-14.88026354 23.88185099 -12.23515812 22.06242251 -9.43359375 19.97265625 C0.73621548 12.76215635 12.46774467 9.4721415 24.94140625 11.34765625 C27.81724003 13.46844487 28.43680871 14.99124635 29.94140625 18.34765625 C29.94140625 19.00765625 29.94140625 19.66765625 29.94140625 20.34765625 C27.92871094 21.78051758 27.92871094 21.78051758 25.11328125 23.4296875 C24.08460938 24.03232422 23.0559375 24.63496094 21.99609375 25.25585938 C20.36027344 26.19848633 20.36027344 26.19848633 18.69140625 27.16015625 C17.64726562 27.77697266 16.603125 28.39378906 15.52734375 29.02929688 C4.62704957 35.3608875 -7.03475815 41.95333461 -20.05859375 40.34765625 C-23.71980593 39.0521504 -26.38775337 37.06042416 -29.05859375 34.22265625 C-30.61832468 29.73842984 -30.29160655 25.90353406 -29.05859375 21.34765625 C-25.73730619 14.75235925 -19.98545077 10.49645617 -14.05859375 6.34765625 C-13.13046875 5.66703125 -12.20234375 4.98640625 -11.24609375 4.28515625 C-10.29734375 3.62515625 -9.34859375 2.96515625 -8.37109375 2.28515625 C-7.50097656 1.67542969 -6.63085938 1.06570313 -5.734375 0.4375 C-3.05859375 -0.65234375 -3.05859375 -0.65234375 0 0 Z " fill="#FCFBFB" transform="translate(212.05859375,276.65234375)"/>
<path d="M0 0 C-1.32353873 3.9706162 -3.71090906 4.94088589 -7.1875 6.875 C-7.81317871 7.22578613 -8.43885742 7.57657227 -9.08349609 7.93798828 C-23.46492624 15.76376025 -37.76591867 18.47131204 -54 18 C-51.75588697 9.88575973 -45.9701964 3.68130484 -39 -0.9375 C-25.79325576 -8.29778039 -13.09991848 -7.23942863 0 0 Z " fill="#FDFCFC" transform="translate(302,339)"/>
<path d="M0 0 C4.32062491 2.28738966 7.23477309 4.39079639 9 9 C9.68629371 15.23383454 9.70900579 20.7014203 6 26 C4.1113368 28.17922676 2.78308624 28.86550045 -0.046875 29.3515625 C-4.17650084 29.61486079 -7.11154213 29.40298807 -10.4375 26.8125 C-14.47849738 22.37725897 -15.43958802 19.0396073 -15.24609375 12.984375 C-14.67636712 8.39038884 -12.48368986 5.21355585 -9.1875 2.125 C-5.58802614 -0.27464924 -4.21831978 -0.79093496 0 0 Z " fill="#FDFDFC" transform="translate(250,163)"/>
<path d="M0 0 C4.51720311 -0.36625971 4.51720311 -0.36625971 6.8125 1.375 C8 3 8 3 8 5 C13.63334904 7.54409311 19.50618787 9.21134001 25.6875 8.6875 C29.35768282 9.03374366 29.846614 9.36286537 32.25 11.9375 C37.19954316 18.5148341 38.8957339 25.85226662 38 34 C37.505 34.99 37.505 34.99 37 36 C22.7693112 30.78627862 6.98558141 16.40180509 0 3 C0 2.01 0 1.02 0 0 Z " fill="#FCFAFA" transform="translate(174,312)"/>
<path d="M0 0 C23.53416428 10.85747947 23.53416428 10.85747947 28.42578125 22.03515625 C29.33325393 25.14031788 29.2678428 27.78588635 29 31 C20.88377256 31.44905357 14.50024372 31.03354456 8.1875 25.5625 C4.87191557 21.67852967 2.65903159 18.73715405 1.3125 13.75 C1.06113281 12.85796875 0.80976563 11.9659375 0.55078125 11.046875 C-0.12948172 7.28371813 -0.08611076 3.8216775 0 0 Z " fill="#FCFBFA" transform="translate(309,235)"/>
<path d="M0 0 C1.91449117 1.58041888 3.12118766 3.02160435 4.43359375 5.12890625 C4.84996094 5.77214844 5.26632813 6.41539062 5.6953125 7.078125 C7.12994206 10.3047082 7.60263564 12.90403117 7.74609375 16.44140625 C6.3828125 19.87109375 6.3828125 19.87109375 4.43359375 23.31640625 C1.52572393 28.658091 -0.31906758 33.41689039 -1.25390625 39.44140625 C-3.89390625 38.78140625 -6.53390625 38.12140625 -9.25390625 37.44140625 C-9.09341797 36.09949219 -9.09341797 36.09949219 -8.9296875 34.73046875 C-7.82070535 23.54525098 -9.28919422 15.90267361 -15.25390625 6.44140625 C-13.1803332 5.21284418 -11.09793871 4.00915279 -9.00390625 2.81640625 C-8.12412109 2.29046875 -8.12412109 2.29046875 -7.2265625 1.75390625 C-2.84816077 -0.70587 -2.84816077 -0.70587 0 0 Z " fill="#FCFBFB" transform="translate(224.25390625,313.55859375)"/>
<path d="M0 0 C-0.11493757 1.89646998 -0.24239642 3.79218332 -0.375 5.6875 C-0.44460938 6.74324219 -0.51421875 7.79898437 -0.5859375 8.88671875 C-1.0025505 12.01917687 -1.40446746 14.2682549 -3 17 C-5.390625 18.0390625 -5.390625 18.0390625 -8.25 18.625 C-12.60936955 19.62748314 -16.12112884 20.79847853 -20 23 C-20.32613281 22.52949219 -20.65226562 22.05898438 -20.98828125 21.57421875 C-21.42527344 20.95160156 -21.86226563 20.32898438 -22.3125 19.6875 C-22.74175781 19.07261719 -23.17101562 18.45773437 -23.61328125 17.82421875 C-24.95929534 16.05354669 -26.39192803 14.53261991 -28 13 C-19.95770215 5.38548395 -11.49970788 -0.23508773 0 0 Z " fill="#FCFBFB" transform="translate(338,277)"/>
<path d="M0 0 C11.38392857 7.09821429 11.38392857 7.09821429 14 10 C13.18208984 10.32871094 13.18208984 10.32871094 12.34765625 10.6640625 C7.17088109 12.84096282 2.63630597 15.40325299 -1.95703125 18.6328125 C-4 20 -4 20 -6.19921875 20.9921875 C-8.35115712 21.93110918 -8.35115712 21.93110918 -9 25 C-11.5017497 22.72501709 -13.02889373 20.40939112 -14.625 17.4375 C-15.05039063 16.65246094 -15.47578125 15.86742187 -15.9140625 15.05859375 C-16.62376508 13.71322231 -17.31974974 12.36050051 -18 11 C-12.06 7.37 -6.12 3.74 0 0 Z " fill="#FCFBFA" transform="translate(246,299)"/>
<path d="M0 0 C2 1 2 1 2.60546875 2.7734375 C4.02940525 10.80951477 3.04735932 17.85836919 -1 25 C-4.04493383 28.04493383 -6.62731611 29.88658299 -11.04296875 30.09765625 C-11.75066406 30.08605469 -12.45835937 30.07445312 -13.1875 30.0625 C-15.0746875 30.0315625 -15.0746875 30.0315625 -17 30 C-17.68359375 28.3203125 -17.68359375 28.3203125 -18 26 C-14.76137062 19.12751867 -9.64523624 13.08770255 -4.796875 7.2890625 C-2.96873632 4.96017279 -1.46953614 2.56715264 0 0 Z " fill="#FBFAF9" transform="translate(181,238)"/>
<path d="M0 0 C-1.48575135 2.9715027 -3.52389987 3.04602842 -6.625 4.125 C-12.68108153 6.36427959 -18.24291253 9.10412153 -23.88525391 12.23291016 C-27.19176406 14.06309175 -30.45279554 15.6899529 -34 17 C-35.65 15.02 -37.3 13.04 -39 11 C-37.60028101 6.54634868 -35.72951489 3.83767438 -32 1 C-28.13949356 0.3289354 -24.72153956 0.75948681 -21 2 C-13.57102247 2.60846864 -7.27749936 -0.34654759 0 0 Z " fill="#FBFAF9" transform="translate(280,276)"/>
<path d="M0 0 C1.89492187 0.01353516 1.89492187 0.01353516 3.828125 0.02734375 C4.79234375 0.03894531 5.7565625 0.05054688 6.75 0.0625 C6.40066406 0.70316406 6.05132812 1.34382813 5.69140625 2.00390625 C3.00423046 7.11182398 1.1267544 11.28559915 0.75 17.0625 C-1.56 17.3925 -3.87 17.7225 -6.25 18.0625 C-7.08919398 15.79367913 -7.92151724 13.52272973 -8.75 11.25 C-8.98847656 10.60740234 -9.22695312 9.96480469 -9.47265625 9.30273438 C-10.52068746 6.41316261 -11.25 4.16173939 -11.25 1.0625 C-7.49600202 -0.1414337 -3.91782588 -0.03627617 0 0 Z " fill="#FDFDFC" transform="translate(176.25,289.9375)"/>
<path d="M0 0 C-2.4513627 8.30739582 -5.43669988 18.06670273 -13 23 C-13.33 22.34 -13.66 21.68 -14 21 C-13.68675781 20.4225 -13.37351562 19.845 -13.05078125 19.25 C-11.68218238 16.31946858 -11.97496392 14.20809177 -12.1875 11 C-12.29768831 5.3459621 -12.29768831 5.3459621 -9.6875 2.3125 C-6.10973809 0.56522093 -4.04395107 0 0 0 Z " fill="#F9F7F5" transform="translate(333,299)"/>
<path d="M0 0 C5.72837022 5.58148893 5.72837022 5.58148893 6.5625 9.9375 C6.5625 15.86702586 1.65864673 20.72255466 -2 25 C-2.33 25 -2.66 25 -3 25 C-2.88481642 22.33259077 -2.75810454 19.66652759 -2.625 17 C-2.5940625 16.25621094 -2.563125 15.51242188 -2.53125 14.74609375 C-2.26246207 9.59432517 -1.38936116 4.97007244 0 0 Z " fill="#FAF8F7" transform="translate(166,230)"/>
<path d="M0 0 C1.8125 0.1875 1.8125 0.1875 4 1 C5.0064275 2.66279327 6.00585407 4.32983484 7 6 C9.56610666 7.80796103 9.56610666 7.80796103 12 9 C8.58895449 11.07128547 5.89464724 11.26961411 1.9375 11.25 C0.37322266 11.25773438 0.37322266 11.25773438 -1.22265625 11.265625 C-4 11 -4 11 -7 9 C-6.21625 8.2575 -5.4325 7.515 -4.625 6.75 C-2.43495469 4.45566682 -1.17268614 2.87841142 0 0 Z " fill="#F9F6F4" transform="translate(246,197)"/>
<path d="M0 0 C2.6875 -0.5 2.6875 -0.5 6 0 C7.52865367 1.87729398 8.61133962 3.83917168 9.7734375 5.9609375 C11.39161837 8.65103436 13.45240503 10.20979813 16 12 C16.66 12.66 17.32 13.32 18 14 C10.60596219 13.29580592 5.8048855 9.49129771 1 4 C0.1875 1.6875 0.1875 1.6875 0 0 Z " fill="#F3EFEB" transform="translate(302,254)"/>
<path d="M0 0 C6.78661213 0.78914095 13.36149367 2.41274811 20 4 C18.19921875 5.9921875 18.19921875 5.9921875 16 8 C9.55542907 8.25272827 4.86605023 4.88401288 0 1 C0 0.67 0 0.34 0 0 Z " fill="#F6F3F0" transform="translate(220,275)"/>
<path d="M0 0 C1.98 0.495 1.98 0.495 4 1 C3.67 2.32 3.34 3.64 3 5 C1.68 4.67 0.36 4.34 -1 4 C-0.67 2.68 -0.34 1.36 0 0 Z " fill="#A78368" transform="translate(195,248)"/>
<path d="M0 0 C1.98 0.495 1.98 0.495 4 1 C3.67 2.32 3.34 3.64 3 5 C1.68 4.67 0.36 4.34 -1 4 C-0.67 2.68 -0.34 1.36 0 0 Z " fill="#A78368" transform="translate(296,236)"/>
<path d="M0 0 C0.99 0 1.98 0 3 0 C3.33 1.32 3.66 2.64 4 4 C2.68 4.33 1.36 4.66 0 5 C-0.5625 3.0625 -0.5625 3.0625 -1 1 C-0.67 0.67 -0.34 0.34 0 0 Z " fill="#AE8D74" transform="translate(193,229)"/>
<path d="M0 0 C-0.33 0.66 -0.66 1.32 -1 2 C-3.3140622 2.73075648 -5.64828869 3.40138258 -8 4 C-8 3.34 -8 2.68 -8 2 C-8.66 1.67 -9.32 1.34 -10 1 C-6.61981469 -0.04005702 -3.5219721 -0.08004482 0 0 Z " fill="#EBE3DD" transform="translate(280,276)"/>
<path d="M0 0 C2.475 0.495 2.475 0.495 5 1 C5 1.99 5 2.98 5 4 C3.35 4 1.7 4 0 4 C0 2.68 0 1.36 0 0 Z " fill="#A47F62" transform="translate(297,217)"/>
<path d="M0 0 C0.99 0 1.98 0 3 0 C3 1.65 3 3.3 3 5 C1.68 4.67 0.36 4.34 -1 4 C-0.67 2.68 -0.34 1.36 0 0 Z " fill="#AB896F" transform="translate(308,272)"/>
<path d="M0 0 C1.32 0 2.64 0 4 0 C3.67 1.32 3.34 2.64 3 4 C1.68 3.67 0.36 3.34 -1 3 C-0.67 2.01 -0.34 1.02 0 0 Z " fill="#A78468" transform="translate(169,277)"/>
<path d="M0 0 C0.99 0.33 1.98 0.66 3 1 C3 2.32 3 3.64 3 5 C1.68 4.67 0.36 4.34 -1 4 C-0.67 2.68 -0.34 1.36 0 0 Z " fill="#A68166" transform="translate(188,267)"/>
<path d="M0 0 C1.98 0.495 1.98 0.495 4 1 C3.67 1.99 3.34 2.98 3 4 C1.68 4 0.36 4 -1 4 C-0.67 2.68 -0.34 1.36 0 0 Z " fill="#A78368" transform="translate(178,218)"/>
</svg>
